/* XPM */
static char *result[] = {
/* columns rows colors chars-per-pixel */
"80 80 76 1 ",
"  c #654A1E",
". c #6A4D1F",
"X c #6E501E",
"o c #75551E",
"O c #7B5A1D",
"+ c #6A4D21",
"@ c #6E5121",
"# c #745520",
"$ c #775821",
"% c #7C5C21",
"& c #86631E",
"* c #8A661F",
"= c #8E691F",
"- c #926D1F",
"; c #9D751F",
": c #9F781F",
"> c #A47B1F",
", c #A87F1F",
"< c #815F21",
"1 c #846322",
"2 c #896723",
"3 c #8E6A22",
"4 c #936E22",
"5 c #967123",
"6 c #9B7523",
"7 c #9E7824",
"8 c #9D7629",
"9 c #9F7829",
"0 c #A37B24",
"q c #A87F21",
"w c #A47C28",
"e c #A87F29",
"r c #AB811F",
"t c #B1861F",
"y c #B4881F",
"u c #A78025",
"i c #AC8324",
"p c #AC822A",
"a c #B18622",
"s c #B58A22",
"d c #BA8E22",
"f c #B1862B",
"g c #B5892B",
"h c #BB8E2C",
"j c #BE9124",
"k c #BE912C",
"l c #CC8F21",
"z c #C29525",
"x c #CD9223",
"c c #C69926",
"v c #C99B27",
"b c #C3952B",
"n c #C89729",
"m c #C59929",
"M c #CB9C29",
"N c #D09624",
"B c #D39A26",
"V c #D19E2A",
"C c #C69630",
"Z c #CC9C30",
"A c #D09F30",
"S c #CFA02B",
"D c #D5A32C",
"F c #D9A52D",
"G c #DCA92E",
"H c #CDA031",
"J c #D4A230",
"K c #D9A631",
"L c #DDA930",
"P c #E1AD2E",
"I c #E3AE32",
"U c #E6B133",
"Y c #E9B435",
"T c #EBB935",
"R c #F2BA36",
"E c None",
/* pixels */
"EEEEEEEEEEEEEEEEEEEEEEEEEEEEEEEEEEEEEEEEEEEEEEEEEEEEEEEEEEEEEEEEEEEEEEEEEEEEEEEE",
"EEEEEEEEEEEEEEEEEEEEEEEEEEEEEEEEEEEEEEEEEEEEEEEEEEEEEEEEEEEEEEEEEEEEEEEEEEEEEEEE",
"EEEEEEEEEEEEEEEEEEEEEEEEEEEEEEEEEEEEEEEEEEEEEEEEEEEEEEEEEEEEEEEEEEEEEEEEEEEEEEEE",
"EEEEEEEEEEEEEEEEEEEEEEEEEEEEEEEEEEEEEEEEEEEEEEEEEEEEEEEEEEEEEEEEEEEEEEEEEEEEEEEE",
"EEEEEEEEEEEEEEEEEEEEEEEEEEEEEEEEEEEEEEEEEEEEEEEEEEEEEEEEEEEEEEEEEEEEEEEEEEEEEEEE",
"EEEEEEEEEEEEEEEEEEEEEEEEEEEEEEEEEEEEEEEEEEEEEEEEEEEEEEEEEEEEEEEEEEEEEEEEEEEEEEEE",
"EEEEEEEEEEEEEEEEEEEEEEEEEEEEEEEEEEEEEEEEEEEEEEEEEEEEEEEEEEEEEEEEEEEEEEEEEEEEEEEE",
"EEEEEEEEEEEEEEEEEEEEEEEEEEEEEEEEEEEEEEEEEEEEEEEEEEEEEEEEEEEEEEEEEEEEEEEEEEEEEEEE",
"EEEEEEEEEEEEEEEEEEEEEEEEEEEEEEEEEEEEEEEEEEEEEEEEEEEEEEEEEEEEEEEEEEEEEEEEEEEEEEEE",
"EEEEEEEEEEEEEEEEEEEEEEEEEEEEEEEEEEEEEEEEEEEEEEEEEEEEEEEEEEEEEEEEEEEEEEEEEEEEEEEE",
"EEEEEEEEEEEEEEEEEEEEEEEEEEEEEEEEEEEEEEEEEEEEEEEEEEEEEEEEEEEEEEEEEEEEEEEEEEEEEEEE",
"EEEEEEEEEEEEEEEEEEEEEEEEEEEEEEEEEEEEEEEEEEEEEEEEEEEEEEEEEEEEEEEEEEEEEEEEEEEEEEEE",
"EEEEEEEEEEEEEEEEEEEEEEEEEEEEEEEEEE#1356wupiagasaiuw641$EEEEEEEEEEEEEEEEEEEEEEEEE",
"EEEEEEEEEEEEEEEEEEEEEEEEEEEEEE16igzbMMVVVDDDDDBVDMSMMcjg03@EEEEEEEEEEEEEEEEEEEEE",
"EEEEEEEEEEEEEEEEEEEEEEEEEEE%0hnVDDDFKKIIIIUUUYYYYIIGFFDMVMk0%EEEEEEEEEEEEEEEEEEE",
"EEEEEEEEEEEEEEEEEEEEEEEEE$uMVVVKLUUYYYUYUYYYGFDDFGPYYPYULDMDn0 EEEEEEEEEEEEEEEEE",
"EEEEEEEEEEEEEEEEEEEEEEEE<zFMVIYYUUUPUUUUTPBxBYTUBllNlBTIYYUKVVb#EEEEEEEEEEEEEEEE",
"EEEEEEEEEEEEEEEEEEEEEEE#kIMIYYIIYYYYUUUPTBxxDPDDFPPNxBTYIYIYYZPb+EEEEEEEEEEEEEEE",
"EEEEEEEEEEEEEEEEEEEEEEE3IVIYIIYYYPFPTUTTYBlNxlGTTUTUIYYIYUYYIYlY6EEEEEEEEEEEEEEE",
"EEEEEEEEEEEEEEEEEEEEEEE3LFVYYYIYPlxNUUPBBPUNNlFTUUUUYIYYIYIIYInYsEEEEEEEEEEEEEEE",
"EEEEEEEEEEEEEEEEEEEEEEE1zYVVIYYUTBxNlllPTTPlNFYUUUUIYIYIIYYUKnYF0EEEEEEEEEEEEEEE",
"EEEEEEEEEEEEEEEEEEEEEEE%avIFMVLYTPUPPGFFFFPPTYUUUUUUYYYYYIFMVIVz4EEEEEEEEEEEEEEE",
"EEEEEEEEEEEEEEEEEEEEEEEEidjDIFVMBFPIYTTTRTTTYYYYYYYUIIKVnVFGKzan4<EEEEEEEEEEEEEE",
"EEEEEEEEEEEEEEEEEEEEEEEE:cyhzMGLGDDSBvSBDDFBDDDDVVBBMVVFPFDzszzawV.EEEEEEEEEEEEE",
"EEEEEEEEEEEEEEEEEEEEEEEEXiczddzdvDDLLLLGDFDFFFKFGLGGLDDcbsdzdva&MY4EEEEEEEEEEEEE",
"EEEEEEEEEEEEEEEEEEEEEEEEE%0zzdzscysmdmmzSSSSSSvSbMzjzsmszddvzi1dUD4EEEEEEEEEEEEE",
"EEEEEEEEEEEEEEEEEEEEEEEEE4:30dvdSjjmszjsjyjsjjsmycjdzdmdMczu*4MUDd1EEEEEEEEEEEEE",
"EEEEEEEEEEEEEEEEEEEEEEEE15jj7660dsjMjvcjSdSjjmjvjvzzMdmiu4*;zPInjdoEEEEEEEEEEEEE",
"EEEEEEEEEEEEEEEEEEEEEEE2D7tzzzhsu9707eursudassid,i,77456ebFUIzzhziEEEEEEEEEEEEEE",
"EEEEEEEEEEEEEEEEEEEEEE%MUi-vdzyvMMZnzkhggpppppuppfhhnDLIIFMdzsdcs%EEEEEEEEEEEEEE",
"EEEEEEEEEEEEEEEEEEEEEE5UMIf5dMszjdcjMMMDFGGGLLUGGGFFDMzjjszszzcaoEEEEEEEEEEEEEEE",
"EEEEEEEEEEEEEEEEEEEEEE2LLMRh4qyMjjmszzszyjjsksjdjjyzazjdzdvdvs-1EEEEEEEEEEEEEEEE",
"EEEEEEEEEEEEEEEEEEEEEE1zIFnUIf50qdMjvcjMdzzdmszhzzyvdmzzMyd:6wa0EEEEEEEEEEEEEEEE",
"EEEEEEEEEEEEEEEEEEEEEE%azGPMVPLHg967uirjajjdvdzzzcscadi7:-whMMc4EEEEEEEEEEEEEEEE",
"EEEEEEEEEEEEEEEEEEEEEE+uzdmLLDMDFFMChfpwww06w60606554;6izKIDcyz<EEEEEEEEEEEEEEEE",
"EEEEEEEEEEEEEEEEEEEEEE1;zsjjkDGLKDFDFDDDVVMMMbbznnMFFPIIDMhyzzi.EEEEEEEEEEEEEEEE",
"EEEEEEEEEEEEEEEEEEEEEE0w0zzddzscmSFDFFLFGGLLGGGPPKLDMMdzyjzhM:60EEEEEEEEEEEEEEEE",
"EEEEEEEEEEEEEEEEEEEEEE3Gp4szzmsmsdmszzjMjScmMjSjbddzsmszjzva6wD7EEEEEEEEEEEEEEEE",
"EEEEEEEEEEEEEEEEEEEEEE1dDZ04izjMjzmszjdzyzdjjdjszdzzdMdvji65bDj=EEEEEEEEEEEEEEEE",
"EEEEEEEEEEEEEEEEEEEEEE1yhMLnp65pismjvcjMdSjzcjSjMzzzsd076ubLMszOEEEEEEEEEEEEEEEE",
"EEEEEEEEEEEEEEEEEEEEEE+qcyjvDGSkpu96777u7iqqu7a606608phbJGvdjja%EEEEEEEEEEEEEEEE",
"EEEEEEEEEEEEEEEEEEEEEE#1jzzsjzzDFGLLHMbCkhhgkkkCbHJJFLMSdjjdvr5k$EEEEEEEEEEEEEEE",
"EEEEEEEEEEEEEEEEEEEEEE%u4uvjjzsmsjmjSMSFDLDGDDFSDMvkdzszszzzu4Ld$EEEEEEEEEEEEEEE",
"EEEEEEEEEEEEEEEEEEEEEEEaz66,zcjMdjzamsjjyzsjjsjtmsjjdmdMjzi3pGD0EEEEEEEEEEEEEEEE",
"EEEEEEEEEEEEEEEEEEEEEEE0jvjw66rkdcMjczjcsvjmjjmjvjccjcti66pDLjz7EEEEEEEEEEEEEEEE",
"EEEEEEEEEEEEEEEEEEEEEE+5zjjSvkpw6707aiijtkaddajrsuu0690pbJGjjsc&EEEEEEEEEEEEEEEE",
"EEEEEEEEEEEEEEEEEEEEEE45ucjjsSMSSnCkgppuuuwwwuuppgkbMJDDmdzszz72EEEEEEEEEEEEEEEE",
"EEEEEEEEEEEEEEEEEEEEEE1M67zzsmsjzjMMSFDGDFKFKFKJDDMSjmdjjdmjz4ujEEEEEEEEEEEEEEEE",
"EEEEEEEEEEEEEEEEEEEE%a6dLw5ijSdmjsmdjjyksjjszszsjjsmymjjmjm65kF7EEEEEEEEEEEEEEEE",
"EEEEEEEEEEEEEEEEEEE2nGwqjLZe50rjzjSjjcjvjzjdmsmdkzjSsSjdi;6gDvz;EEEEEEEEEEEEEEEE",
"EEEEEEEEEEEEEEEEEE1DGVb0zdcGDkpw66puajazszzjvszdddra:75upmFSzyc*EEEEEEEEEEEEEEEE",
"EEEEEEEEEEEEEEEEEEuUMYK3jjdjjDDLJSkgpu90676676w79upgkHHGSvzszzuEEEEEEEEEEEEEEEEE",
"EEEEEEEEEEEEEEEEEEiTnIRh3jzzszyzzvDFGPLLLLLLLLLLLLGFSSjjsjzdS0XEEEEEEEEEEEEEEEEE",
"EEEEEEEEEEEEEEEEEE7IGnIRC3uzzMdcjdmajjjzjmkjcjmdkjsjsjjjjzMt5@EEEEEEEEEEEEEEEEEE",
"EEEEEEEEEEEEEEEEEE5zFIMMILf40hyvcjSszjycszjjzszdjjjSdSdjju5%sM1EEEEEEEEEEEEEEEEE",
"EEEEEEEEEEEEEEEEEE3sjMLLVMFVg6:wuakdzvzSjvzjvjMjSjdjygu--70wUMD2EEEEEEEEEEEEEEEE",
"EEEEEEEEEEEEEEEEEE%szyzMJLLDDDmar55=45-75070w;u6w066-60adv0hRFVJ#EEEEEEEEEEEEEEE",
"EEEEEEEEEEEEEEEEEEE2vdzyjjcDDLIUPGKDSzbkbbzCnbbbbbzMdnzzc>8YYIMY0EEEEEEEEEEEEEEE",
"EEEEEEEEEEEEEEEEEEEE4svymjdzszzjScSDDLGGFDDVDMMzzzycyvzz75IYYnPI0EEEEEEEEEEEEEEE",
"EEEEEEEEEEEEEEEEEEEEE%0aMzjMszjymsjjsjyjddjszskjdzdMdz04gTYFnFIz4EEEEEEEEEEEEEEE",
"EEEEEEEEEEEEEEEEEEEEEEE#5>amjccjSjkmjvdmhzzdMyvzzmsg66fKIVMDIVhz&EEEEEEEEEEEEEEE",
"EEEEEEEEEEEEEEEEEEEEEEE@q755-7ursiddsjyksdjaz,u05540hMVVBKPVzzyzoEEEEEEEEEEEEEEE",
"EEEEEEEEEEEEEEEEEEEEEEE@=Sjjtiu67uw09wuu000600eidmDGIFLFJzzddzj6wEEEEEEEEEEEEEEE",
"EEEEEEEEEEEEEEEEEEEEEEE1-5jcjzcjSzcSSDDKIKIIIIIILLDDMzmszszzzz*hM%EEEEEEEEEEEEEE",
"EEEEEEEEEEEEEEEEEEEEEEEEgp3idccymyjjyzjdjdmdzjdjsmsjjsmscjcz:4nPuEEEEEEEEEEEEEEE",
"EEEEEEEEEEEEEEEEEEEEEEEEqcme4wsySjzSdvjjmsmszjdmsmjjzjMjcu75fLMz0EEEEEEEEEEEEEEE",
"EEEEEEEEEEEEEEEEEEEEEEEE6zjcMgp697ahakjjSsSjczjMdcjjsqu57pkFDmav-EEEEEEEEEEEEEEE",
"EEEEEEEEEEEEEEEEEEEEEEE1=szyzzDMmkpu7u7675u677705060efbMJDMcazzsOEEEEEEEEEEEEEEE",
"EEEEEEEEEEEEEEEEEEEEEEE3h3jzzymszSvFDDDDSSHHMZMAJJDGKDSzjjazdMu5sEEEEEEEEEEEEEEE",
"EEEEEEEEEEEEEEEEEEEEEEE$mM3wzjvdzjymdjzjvjcczSzMjzzszajdjzjSy76DiEEEEEEEEEEEEEEE",
"EEEEEEEEEEEEEEEEEEEEEEEEuMLp47jsvcjMdjzsmyjjdzszdjzsmjvzzzu05hDv7EEEEEEEEEEEEEEE",
"EEEEEEEEEEEEEEEEEEEEEEEErjzDKkw57urkdjvjSjccjMjvjzcdmaaq67ebJDac-EEEEEEEEEEEEEEE",
"EEEEEEEEEEEEEEEEEEEEEEEE-cddzMGKChpw667606u07u7u77767wphmDJSsjjj#EEEEEEEEEEEEEEE",
"EEEEEEEEEEEEEEEEEEEEEEEE.,czjszjSDGLKLJHMCbbkCbbMZJJKGFSMjjjsMd1EEEEEEEEEEEEEEEE",
"EEEEEEEEEEEEEEEEEEEEEEEEE#5zzdmyzjsmjzvcDSDDDDMDMMmzmyjsjjjvjs%EEEEEEEEEEEEEEEEE",
"EEEEEEEEEEEEEEEEEEEEEEEEEEE10dvjvjjmdjksmajjsjymsjjdkdvjmjjg=@EEEEEEEEEEEEEEEEEE",
"EEEEEEEEEEEEEEEEEEEEEEEEEEEEE%50ddjSzvcjvdcjjmdvjcczvdvsa61EEEEEEEEEEEEEEEEEEEEE",
"EEEEEEEEEEEEEEEEEEEEEEEEEEEEEEEE#<37:uiihijddjakiaiqw-3%EEEEEEEEEEEEEEEEEEEEEEEE",
"EEEEEEEEEEEEEEEEEEEEEEEEEEEEEEEEEEEEEEEEE$%%%%%%#EEEEEEEEEEEEEEEEEEEEEEEEEEEEEEE",
"EEEEEEEEEEEEEEEEEEEEEEEEEEEEEEEEEEEEEEEEEEEEEEEEEEEEEEEEEEEEEEEEEEEEEEEEEEEEEEEE"
};
