/* XPM */
static char *_67762c687814bd8f52b7f890b22b42fxPEhMwDSPzgpejGy[] = {
/* columns rows colors chars-per-pixel */
"87 80 2 1 ",
"  c None",
". c black",
/* pixels */
"                                                   .                                   ",
"                                                                                       ",
"                                                                                       ",
"                                               . .                                     ",
"                                                .                                      ",
"                                                       .                               ",
"                                              .                                        ",
"                                             .     .                                   ",
"                                    .                                                  ",
"                            . .     .     .                                            ",
"                                   .  .                                                ",
"                          .              .                                             ",
"                            . .  .. ..                                                 ",
"                             .   .... .     .                                          ",
"                              . ............  .        .... .                          ",
"                           ................... .    . .....     .                      ",
"               .         .  ..................  . .     ...        .                   ",
"                             ...................  .  ......           .                ",
"                          ........................ .  .....                            ",
"                 .      ........................... ........                           ",
"                ...    ....................................                            ",
"                 ..  ........................................                ..        ",
"                 ............................................     . .        ..        ",
"                ...............................................  .     .           .   ",
"                ..........................................  . ..            .          ",
"              .  .......................................... .....                      ",
"             . .............................................. . ..                     ",
"              ...............................................           ...            ",
"             .................................................        .                ",
"            ................................................... . ..       .           ",
"            .................................................. ... .                   ",
"             ....................................................  . .   ..            ",
"        .    .................................................  ...                   .",
"       .    ................................................... .            .         ",
"      .    ........................................................  .                 ",
"      .. ...  ................................................. .. ..                  ",
"      .............................................................                    ",
"      . .. ..........................................................                  ",
"      . ............................................................ .                 ",
"        ..............................................................                 ",
"     ....... .........................................................                 ",
"   .. .. ...........................................................                   ",
"    . ....... ....................................................... . .              ",
"    .  ............................................................... .               ",
"    ..................................................................                 ",
"        . ..........................................................                   ",
"          ..........................................................                   ",
"           ..........................................................                  ",
"          ...........................................................                  ",
"      .    ..................................................... ....                  ",
"     ...  ......................................................  ...                  ",
"      .. ......................................................... .   .               ",
"      ........................................................                         ",
"     . .......................................................  ....                   ",
"      .............................................................                    ",
"    ...................................................... .......                     ",
"   ...............................................................                     ",
"   ............................................................ ....            .      ",
"    ....   ........ ...................................... ... .                       ",
"                ...................................... ......                          ",
"  ..            .......................................... . ...                       ",
"                    ................................. .......  .     .                 ",
"                     ..............................  . .  . ....                       ",
"                     ...... ... ........ ............ . .  .. .                        ",
"                        .  ........................  .  ....  .                        ",
"                            ............ ...... ... .  ....  .                         ",
"                             .........................  .. . .                         ",
"                             ..   ... ..     . . ...  . .  ...                         ",
"                        .    .     ..... .    ..  .     . . .                          ",
"                                 .  . ... .. . ..        .                             ",
"                            . . ..  .   .       .      .                               ",
"                           .     .   .     .  ...                                      ",
"                                 ..            .                                       ",
"                                       .      ..                                       ",
"                             .   .             .                                       ",
"                                .         .                                            ",
"                                       .                                               ",
"                                              .                                        ",
"                                                                                       ",
"                                                                                       "
};
