/* XPM */
static char *result[] = {
/* columns rows colors chars-per-pixel */
"80 80 126 2 ",
"   c #614639",
".  c #67483A",
"X  c #413F41",
"o  c #3F4040",
"O  c #3E4348",
"+  c #444544",
"@  c #484545",
"#  c #4B4945",
"$  c #44474A",
"%  c #46494B",
"&  c #4B4C4C",
"*  c #544C46",
"=  c #534E4C",
"-  c #594F4A",
";  c #4D504D",
":  c #53514E",
">  c #5C534E",
",  c #454B51",
"<  c #4C4E51",
"1  c #504E50",
"2  c #4D5253",
"3  c #555453",
"4  c #5B5754",
"5  c #575854",
"6  c #5B5955",
"7  c #545658",
"8  c #56595A",
"9  c #5C5C5B",
"0  c #654F42",
"q  c #615B4F",
"w  c #6F594C",
"e  c #715B4D",
"r  c #7C5F4B",
"t  c #615751",
"y  c #635C55",
"u  c #6B5D51",
"i  c #625E5C",
"p  c #695D59",
"a  c #775F55",
"s  c #785E51",
"d  c #5E615E",
"f  c #6A6155",
"g  c #63615E",
"h  c #6B635D",
"j  c #6D695E",
"k  c #766654",
"l  c #7C6757",
"z  c #73655D",
"x  c #71695E",
"c  c #555E61",
"v  c #5D5E60",
"b  c #645E61",
"n  c #5E6161",
"m  c #5D6568",
"M  c #646463",
"N  c #6A6663",
"B  c #666966",
"V  c #6B6966",
"C  c #666769",
"Z  c #686768",
"A  c #666969",
"S  c #6C6C6B",
"D  c #726760",
"F  c #726C65",
"G  c #7B6D64",
"H  c #716E6B",
"J  c #786F69",
"K  c #6E706E",
"L  c #747067",
"P  c #7D7166",
"I  c #73716E",
"U  c #7A736D",
"Y  c #676E70",
"T  c #6E6F70",
"R  c #716F71",
"E  c #6F7171",
"W  c #747473",
"Q  c #797674",
"!  c #767876",
"~  c #7B7976",
"^  c #767778",
"/  c #797778",
"(  c #767979",
")  c #7C7C7B",
"_  c #877B67",
"`  c #83786F",
"'  c #907B64",
"]  c #827B75",
"[  c #817E7C",
"{  c #7E807E",
"}  c #9B8462",
"|  c #848074",
" . c #82817E",
".. c #88837D",
"X. c #8E897F",
"o. c #908071",
"O. c #978A7A",
"+. c #7D7F80",
"@. c #817F80",
"#. c #7E8181",
"$. c #838483",
"%. c #898684",
"&. c #868886",
"*. c #8A8986",
"=. c #868788",
"-. c #888788",
";. c #868989",
":. c #8B8C8B",
">. c #928C84",
",. c #918F8C",
"<. c #8E908E",
"1. c #92918E",
"2. c #8D8E90",
"3. c #908E90",
"4. c #8E9191",
"5. c #939493",
"6. c #989791",
"7. c #979896",
"8. c #989996",
"9. c #949799",
"0. c #969999",
"q. c #9A9B9A",
"w. c #999EA0",
"e. c #9EA1A1",
"r. c #A0A4A4",
"t. c None",
/* pixels */
"$.&.5.:.;.) 5.&.) [ N y W M S W C W ) H ] V I %.*.*.K W %.) ) ! ! M W g  . .S W { &.4.:.;. .L ` 8.| ' >.:.! ) ~ U h W ~ N N  . .$.A S $. .$.) 9 Z W g %.&.S I ) ",
":.5.5.7.#.) :.&.[ ) ) Q S V W %.*. .%.W $.F N $.:.~ p { 5.) ) S S 9 ! W ( $.K S ^ 7.<.7.-.K ]  .%.>.O.<.#.) U ~ U h 8 %.L 9 ) ~ H - W :.%.*.S W 7 ! ) #.&.W I W ",
") ;.5.2.S ;.{ :.$.H I &.&.<.#.{ ) I W Q { ~ S K ) ) Q  .$.) ( [ +.V W / ) ) S W #.) :.0.&.W :.:.] 1.7.5.<.*.>...%.{ M U  .I S I %.)  .*.&.! W :.C W $.) &.H W $.",
"W / =.[ ( ;.! $.$.W ! W &.$.Q A : S W U ! S S W ~ [ )  .! [ H ( $.( W :.;.=.Q ! $.^ ( 4.#.W *.) ) ! q.q.6.1.*.:.( I ) K B 6 M { #.|  .) ! V / :.%.K ) 5.-.! T -.",
"/ ;.<.:.#.+.W M 2.-.i S :.$.S S N F Z H [ + 3 ! ~ U ) %.$.&.:.) :.&.) @.+.&.$.Z ) %.W 4.<.! <.%.8 W 5.<.O.q.;.9 ! | ) Z + t.S  .W ~  .W :.5.*.q.1.$./ W 2.&.R ! ",
"! $.;.-.( %.$.$.7.) ! W U S W ! [ 9 I I ! ! ~ K d A  .! [ &.:.:.&.-.#.W $.&.&.T ) ) E #.&.{ ;.( F ) %.,.F :.W V *.:.M ) ) 6 : V n =.! ! :.:.0.1.5.:.$.8 / :.S ! ",
"/ M C ! E ( &.$.2.) +.&.Q Q @.W U M h W M ,.:.~ V ! W &.:.+.) :.,.2.;.) +.5.;.H | #.5 M ) ! %.%.,.:.( ' ..d :.%. .{ ) N Q ! ! )  .M ) 1.:.:.<.5.9.<.$.S ! 9.W ! ",
"+.@.K ! M W ( ! =.$.&.Q Q ~ / Q r p 9 _ w ~ %.) ! # g :.$.W ! #.:.&.) W -.3.+.S W ( #.K  .C W %.6.[ S z ~ h %.{ ..%.I j ] d ! ! 9 y :.;.) $.&.:.&.[ +.W $.4.S S ",
":.%.W #.#.V ! ;.;.2.=.V W 8 y Z W Z ) G F S S ( %.t.g %.%.<.$. .:.) ) &.$.#.) $.$.*.:.W $.K ! 1.1. .y ) M I { { %.$.{ A { 9 S #.C g ) %.1.:.&.<.$.{ :.M /  .) ;.",
"| V ) $.#.V W 2.) $.W M b S F H M 0 N ( ) % g :.$.& S ) $.:.{ { :.&.! ) $.) <.;.Y  .D $.( { ) ! } _ W L W 9 ~ N ..W | { 3 8 ! I d C I  .7.%.{ :.&.W ;.n W ;.4.=.",
") ;.( ;.#.) #.:.$.E S S T ) H H H s . S $.M K ( { I 5 I <.) ;.<.:.9./ W $.$.;.-.K $.&.( :.#.! I | _  .| I M H J { K X.#.S d W { ( g I :.$.<.<.4.9.;.{ M #.;.#.E ",
"( ( S :.#.;.$.;.$.5 W ;.U S %.! W S W I  .V ( )  .( & { { ;.$.K ( #.^ =.{ 9.^ :.;.$.( S <.$.M V $.$.K K A 8 M W M E { #.S W K %.( + ) &.:.:.E ( 4.<.#.#.q.;.A :.",
") ) W ( =.#.{ -.{ ) $.-.) #.:.#.I ! i : B { #.#.:. .! V <.<.#.W ;.#.7.) ( ;.n ( ( #.#.W #.#.I g g I = S <.( M h V 6 V C { $.S $.{ { g *.9.{ K 5.$.#.;.#.&.:.A { ",
"#.;.{ C ) $.! #.! $.$.T S =.%.Q I 9 9 W ! B I K W &.) S <.$.;.7.;.$.) &.#.+.A E W ) #.W 9 { { ) F M M W L w U ! S C { { M K M d {  .K <.<.{ 7.;.$.( <.<.^ E S E ",
"( { $.W ) ( ( ! H Q / W H ) ! )  .6 { $.) K ( { V ) { ) $.{ <.<.:.5.<.<.W ( ! A E E ( ) g Z !  . .3 9 W . h S 5.|  .$.{ W E n K { $.K ;.~ *.<.%.4.( :.4.;.{ S W ",
"A $.%.) ( ( $.+. .g M W W [ Q S A A U U W A :.$.! U I  .{  .{ $.:.<.5.{ W ) #.A W ^ =.$.E ! S V  .[ g i J h Z $.( ! ;.W ( W &.) ( W ..W %.*.&.<.<.$.A ;.9.#.B K ",
"A =.$.I W $.#.4.=.W M I :.5.W i , M N 9 ! ! $.%.W h K $.{  .K  .{ ;.<.~ ! ) E S { ;.:.$.H W W N U ] I : Z &.W M J H $.! $.) $.! V I $.W $.W  .;.{ <.Q { #.E n A ",
"C #.{ W ) =.{ { A V : A :.:.@.M 9 I H 9  .( S  .{ { ) A 7 W $.&.<.*.&.S I ;.{ 9 ( #.#.#.! M C ! S M h ) $.:.) ! ] $.&.%.( Q $.&.{ ) K ; E $.{ *.&.<.M ( &.{ d E ",
"S q { ( $.$.) V : 3 6 : S :.:.M 9 $.H Q ) #.S ! W W K % 5 { %.{ U $.{ ) K ! ! S ) H t ) Q v n m b 8 I ) [ T W $.) ! %.@.=.( ! Q W K ; 2 ) #.$.~ { W ! W ( { W ! ",
"( K I C ) E K 8 & ( E 9 %.q.) > V +.& ! #.) W ) A I ( d ) :.;.{ { { <.1.:.<.~ ! $.( I W V ) V W Z , N ) H :.I ] $.[ :.) [ +.Q Z W ! 9 W <.%.{ ) ! 5.5.<.:.{ { { ",
"( W W A n { E 3 9 W 5 W ;.+.I V { d % I ! W ) ! ( ! B K F L {  .<.*.<.<.5.<.;.W W ( ) { n K Z U S & 4 b +.$.M F { %.) ) ( ( ( ) $.K B L j { { $.{ <.<.<.:.&.! { ",
"( E M 3 B ( ) 3 K W g W :.E E ] <.8 U ~ W &.$.) W K g B g 5 ! ! :.! { <.;.%.&.{ A ^ ( A 7 W { ; i 4 F ( W ! 2.) ~ ..;.) $.;.$.I W K V d 6 K ! ( { { <.:.:.{ { d ",
"#.K C M W ) ( H 9 *.S M I W h [ ( ! d $.{ { =.) ;.{ g d d d ~ { &.{ $.<.;. .) ) E #.K d M | Q g S S p G =.[ =.:.%.q.:.W &.0.) ^ { M g d d K { W {  .:.6. .! { E ",
"W 5 d ! I ) #. .M A y 1 V F V 1.I # V #.$.=.=.=.;.K K C V { { ( :.<.0.<.<.%.#.;.#.S 8 n )  .U :.2.+.) ` W N &.S S &.;.#.=.) K ;.( { K V { X. .W { 7.0.1.! { { { ",
"V 8 d K =.) ;.T A ) S E ( ! { ) M F I ) $.;.;.{ ( % g S U * g ( { :. .0.X.#.7.<.$.V M C I <. .) 4.W N $.Y n Q H { S $.&.:.;.$.$.8 S I ) q y ) K E :.q. .Z :.:.&.",
") ! C A $.;.W ( +.! ) g $.U Z S  .:.d H ! &.9.$.( 7 K W U ! I { { &.0.;.W W #.7.4.+.W Y W ;. .$.;.) :.-.7.q.$.) ) $.:.&.&.5.$.{ 8 ! !  .U V ) %.$.5.&.K ! ( 4.9.",
"#.( g B ) -.R =.) I  .N ) ) : U $.! I A ! W ;.5.:. .! I V [ $. . .:.! X.{ K ! :.0.$.#.M E #.;.:.:.D Q 2.q.:.0.V ~ e.1.&.;.9.0.:.$.) ! ! ~ $.:. .<.$.! ) Z W ;.q.",
"4.) A ( =.+.) H ( ! 5.:.) S d A W ) $.) ( V ( &.&. .! * 3 A *.Q { { I :.K W { &.2.#.#.W #.4.:.) *.u F 9.2.5.:.[ { <.:.[ 1.7.-.&.%.) - 6 M &.) I ( ( %.I I W ;.0.",
"4.$.W #.;.+.b F $.2.0.@.Q i W Y S ] ) | ) ( $.#.Q V W ( V 8 U ) <.W S #.{ E K K ;.:.+.#.$.9.:.h S S ) 5.:.5.$.&.$.:.$.&.5.1.$.) I $.[ ( 2 g ! &.K d ! ( E E A ;.",
"4.#.=.=.+.$.T +.) ~ 9.) $.) S v ( ) H &.) ! ! ) ! F ) +.h ) ) [ ) ! $.4.;.;.4.#.4.9.;.;.:.:.$.%.R C V $.%.I  .%.) ;.W Q :.$.[ ( U :.;.U 6 I ~ ) { ) 4.4.#.4.;.#.",
"2.-.4.9.4.2.=.;.&.2.[ %.&.) S * W ) N [ ( $.:.:.-.:.$.=.) X. .M 6 :.:.q.{ <.0.7.4.4.:.9.w.4.$.W b V F $.] C H ) :. .:.:.:.%.:.:.8.:.:.( L %.g 6 *.:.9.{ :.0.9.$.",
"$.4.=.4.w.9.@.+.[ ] / @.=.) N h [ [ Q  .$.:.5.S i $.[ :.I %.:.! B U  .&.U ) #.4.4.;.:.2.e.0.Q 3 9 ) M ) 2 M :.&.0.) y ! 5.:.S i &.%.1.H { 1.( V I  . .F | #.;.-.",
"E :.4.3.2.2.T ( &. .! ) 2.=.M M %.J S 5.5.g *.) { %.] %.h ) $.:.&.) $.;.1...) :.#.! :.5.0.:.&.) $.) [ &.& Z 5.:.7.5.:.;.M %.( %.%.~ %.N { &.$.5.$.( ) 1.%.) $.#.",
";.-.) 0.2.W ! ^ &.) +.;.:.W 3 8 *. .W V ) ) $. .5.1...1.) %.-.:.:.4.$.>.%. .Q ) 9.<.:.$.e.:.( ) ) ) :.@.3 R 5.5.5.W  .*.Q [ ) q.5.| 1.| :. .@.&.5.-.%.%.) W W &.",
"&.;.2.e.$.Y #.T F R ) V W n S A S %.I n h Z :.) U #.*. .S S Q ;.&.! :.N w $.) %.q.:.4.:.0.-.d M W b V R W &.) ,. .y :.H S $.S %.1.>...! S W :.&.$.%.H w ) / | 5.",
"! :.9.2.W Z $.^ H S W A W 2 H H E H ) ) I N *.) { )  .W Z v [ 5.;.h  .:.$.3 C :.:.( <.:.;.) W W M 3 Q -.5.:.I [ Q M ) K S W  .*.:.%.K M 8 ~ :.7.U I :. .3 5 #. .",
"$ S / =.^ E 2.T R ) M b ( Z I N S N 9 / S W -.( |  .F ! ! V N ) N M ) &.$.K :.W W O ( #.;.#.S { ! 3 U ) =.M H Q N W %.! g W [ ) *.g Z W V b W S S Q ) &.S %.K ! ",
"S S #.=.#.=.+.< 5 ) n ) ! 8 V A g 3 A +./ :.) h :.%.* 3 h N N R t.) g 7 V H $.H U S ) ! ) #.:.{ S * H T ) $.W H S ( %.) &.%.x $.) N Q h g g W S ) g + W H ) U  .",
"W S ;.2.^ ;.#.W ) ( +.;./ ! V +.I g V W W ) @.! #.) # & 9 [ F + C { C ; S 9 3 g N ( H ! W E $.) W D ( U Q $.W &.( ) { H %.! ( $.$.$.( 9 W / W K ) K & M g 7 N 4 ",
"I ( #.=.+.2.#.#.) +.#.! +.W R $.%.! ! Z I $.C 9 ( M A d ) Q 4 x  . .Z I ! E n W W H ( ! M A ( ( ) W ! ]   p ) :.&.[ W 6 $.S 9 ) ! S 3 ~ ( i x W ! M S E Y n M C ",
"M W ( ) #.#.#.#.^ ( +.+.W ( W M #.) C W :.:.H ) *.%.$.$.W 7 g %.5.~ V M N V ) H N S W :.! I ( h 4 S W ;.( W $.;.$.M Q [ *.I H :.;.#.) ) 6 6 ] :.W C v S i ! V 9 ",
"W ) ) #.4.E 8 +.;.( =.#.E M +.9 M ! M 9 ) &.` X.[ %.&.) h g M ! &.$.:.E S I [ M ( ) $.$.( I $.Z 9 < @.-.! ( ) $.( y %.$.&.] ]  .) ) ! N 6 C T ) [ =.R V W  .N T ",
";.:.=.#.2.2.A ( ( T +.( E ) [ S K :.H 5 I W ;.$.S ) W { ( M y N !  .) I E ) ( $.) :.<.#.#.#.( S ) S W @.:.! ) +.) [ W y ) +.H S I W $.( V i Z W $.) H V W W ( [ ",
"$.$.$.#.#.#.#.#.( ( ) ) W W ~ ) ! Z S / R ) 5.Q ~ :.V ` ) : * N ( I S g S $.Q Q ( &.=.&.#.;.) W W ( ) $.:.<.[ I N [ ) ) ) V ) I %.I `  .9 > y W V N 9 M ) Q H ( ",
"E #.#.+.4.2.#.Y T $.) #.) ( T Z S & S M f >.:.N N ;.C V I / N 9 C S { N M  .Z M ! ! $.;.+.=.#.$.H S -.@.T ) H R ! [ $.+.:.*.V V &.C M K W I 9 v Z W F M / S M S ",
"C #.#.#.#.#.;.Y V ) E =.:.-.R W $.S ( M ~ :.W y N I $.M T R N N Q $.1.) ) W S U N Z #.$.+.$.$.#.! A ! I V T S 8 V i / :.5.) 4 S I { M S T N D I [ &.) ! E A H N ",
"I ( ) #.9.2.=.b =.( W $.W I R ! =.+.[ H / Q ) ! N $.Q N Q S W Q  .) [ Q { :.W ! S S $.#.#.S #.+.S W ! 4 T T N i S M W $.! @.[ H ! ) N ( M H  .[ W Q U H $.W V Z ",
"W &.$.2.0.9.Y b +.=.#.$.) A / 1 S =.) U M & Q ( #.+.) :.@.W ~ $.S Z h D K ! #.( Q Q &.:.^ W $.+.E ) I = S T 5 M n W +.R 1 S ) @.W W :.$.H W $.) 8 5 N V S ) R ! ",
"I :.<.$.{ W #.;.+.=.=.+.#.T Y ! ! / S F N V / S { ) 4.2.@.=.V S V A Z h K ) q.(  .W ;.$.( 5.$.) #.! ( M ! ! S * 4 W S ) K ! W [ ) -.-.+.) M W V Z N y A K 5.( Q ",
") :.7.<.$.Y 4.#.#.#.+.#.^ n ! &.F N [ I N &.W M S @.$.T W 9.v W V W U N %.1.:.&.2.:.;.$.;.:.) +.( W V V Z ( Z 4 ~ ] W | $.! C V [ $.W Z 2.Z W M S W i R #.) { ( ",
";.:.;.9.) E A W =.=.W ( #.+./ M E ) W W H [ ) n 7 W ) $.N - Z M S C ! W V ) W ;.0.4.) ;.2.) ) +.( W ) { / / ( { :.U ( ) ) ! 9 8 V [ ) V p Z 9 V i W I C / E ) #.",
"-.#.) =.E E { $.+.) Q W +.+.) b S #.) A ! U ( I ) U [ $.C ( &.M U ) $.) W E ) $.0.:.;.#.;.) ;.S [ K K { ) Q  .%.&.L N ) U W E ) R [ =.@.T +.9 R I ) ! V S ) { #.",
"^ ) :.) W ( %.A W { ) Q ( ( / E ) +.b 8 J G ) &.&.M F ^ -.:.;.+.V :.9.{ / S &.;.3.Z ;.&.:.W W &.) / $.:.) U | W Q D U ] z ! &.) W F ^ ,.;.;.+.F $.9.+.) Z +.=.=.",
"#.#.$.) K #.W g S ( +.H W ( 7 / W W V S W W 9 g M M *.$.-.3.$.) $.$.:.) $.( :.5.$.W $.#.$.@.S ) ) [ $.@.W ) W %.{ M $.! S 9 i i ) -.@.;.3.$.@.-.=.:.+.;.+.-.-.$.",
"#.$.$.) #.W 8 M V M S ( W ! A W W H ) W W 3 d x h Z -.[ @.@.-.-.@.$.=.) / ! =.:.=.( $.) &.[ J U S ) ) ( W 7 3 &.) &.5.$.+ # y i ~ %.[ %.-.+.-.-.&.@./ W W $.$.$.",
") ) E 2.5.W E ! E E & A W B ( #.( $.Z S H ( M S @ N ) Q H U ) &.[ / [ ( Y Q ) &.Q / ) F ) $.H ( ( !  .] Z 6 &.9.:.%.) ) ) 8 i 4 b W H J W / -.&.) J ) Y H ) ) / ",
"$.#.;.{ ;.L Q E S d d n E ) +.) ( ( ! %.( ! S I 5 V I ! U U %.5.:.Q F S W -.:.) S #.T &./ H ) ) C S C K V Z ) -.$.V 3 ~ | V W 5 M N ( H Q ) 3.-.Q H W T &.$.[ S ",
"( { { ( ( #. .A S S #.W S ( E #.$.9 d @.&.Q W C F ( W $.H N S ) F W S @.m C @.=.K S M S ( S ! ( K 9 g I S M $.Q ) { j U ! ! ! 5 S ) ) U V F H J W Z / C C =.W W ",
"#.! ) Q ( { ( ) W E { ( W ^ n #.$.$.& ! +.M H W S M S ) Z H g S W Z F S S < 4 / ) -.! ! ! ! E ! ( W ) ) M I 5. .W ! 5 ; Z ! S W 5 R &.) N i N Q M V W A 3 5 S / ",
" .! I ! S I K { ) W ) ) =.#.#.{ ;.M W -.;.) $.) ( N Z C E ! ( #./ H M V &.=.F ! ) ) ! ! )  .W W ! ! #.%.{ H Q Q ) W B $.$.;.$.%.W 9 [ :.2.( H W H i 9 / [ ! Q ) ",
"( ! W ! W Z W M ! ! ) ! ) ) $.#.$.E ( [ %.$. .[ W & ! W W C W #.$.6 Q %.*. .U W I Q ) ~ !  .K )  .%.) I ) $.) H M Q ) #.%.&.&.L F 9 ) [ Q ) ~ I g S N H [ ) ] [ ",
") M 3 F V I ) g : g g ) ( $.) W @.$.F H :.[  .%.9 t W | p F i K N - H ) [ S I )  .) C g S ) ! U V ) Q 6 Q U :. .Q 6  .:.I %.%.! 4 = [ h S i R S 3 N H F V I [ %.",
"*.) 4 H g ~ A h Q U t [ $. . .[ %.$.$.N [ %.[ S ) &.[ [ I ) Q ) I ) g Q ) Q I W Q ( H V I V Z ~ ) ~ ! I  .:.&.I U g M | Q  .! *./ N ..R [ ~ [ W Q N W [ Q S I ! ",
"$.[ W N h L M 6  .$.H ) H $.:.$.) ( Q S i ) W F ,.>.! $.[ S H )  .M 9 I  .) ) W ! ) %.! V ) F ~ { U 6 ) %.%.$.S N g @ H %.! U 1.[ V $.~ H ~ ( $.V i V ) ) $.! { ",
"H Q [ Q W H N M W { ! I H ~  .! ! %.%.d ~ %.| %.:.F ) *...Q ) [ ~ W S F $.) $.C K Q ] ! [ %.~ F U $.) [ [ *.*.%.I 3 N *.| | [ :.N S *.[ Q ) [ H R W F ) %.&.Z ! ",
"W  .%.) | ) I W 6 h | ) ,.%.~ g ) ~ ~ 9 ..! ~ { ) %.%. .I W ) %.[ S H H V W ) Z ) ~ ~ %.) I [ *.1.5.7.%.*.[  ...I & J  .$.( ! %.[ I $.H ] ) @.>.S S R F ) ) V W ",
"%.{ %.] ) ) ) V o M ) C V *.:.N ] V 3  . .~ ) ) %.:.%.[ Q ! ] ] Q V 8 Z z h V ~ ! ) ) :.] I :.:.I :.q.:.V Q *.*.: h Q | [ [ Q %.>.V ) / Q Q Q [ %.i N D P S ) g ",
"[ !  .! S Z W 9 Z I V > g I U V  .h N %... .[ Q %. .%.[ ~ F Q Q S V = F W H g U ! |  . .)  .%.) &.:.*. .I  .:.%.C V ..*.%.$.! ..%./ ) ) Z U Q I [ 3 S ( W S h U ",
"%.$.Q Q I H ( g H h V N h q j S $.Z [ %.%.[ [ [ *.1.%.$.Q $.S Q ~ ) V Z H W W @.[ %.$.) )  .W ] 5.:.%.K %.1. .N V )  .*. .[ [  .>.*.W I  .( ) W H W 9 V Q Q W R ",
"[ &.) -.~ *.) I Q ) $.%. .~ )  .| S W Q [  . .) ,.,.W S | $.Q H [ Q t F W R i V ! ) @.) @.) ) :.%.) U $.V %. .[ D ! %.%.[ %.) %.*.W 3 $. .| ] ~ Q > = H W N i Q ",
":.%.%.-.) $.{ %.V h =.a P N 4 M K ! ! V Q ) ) Q Q ) | =.! S ! I ) H J W Q / N F $.%.&.%.[ $.[ ! K E  . .~ Q {  .I Q ! %.[ [ ! S Q 9 : ! W / ..[ S t.H Q W H F [ ",
"&.$.;.) &.| W S H i W G H 6 V ( i 9 [ %.S h I [ U ) [ %.) V V U H $./ R H / ~ F $.%.@.Q [ $.[ N ~ L ` Q N ) %.:.) F 9 Q H W ) I 8 M %.9 C R F H i N / Q / F H / ",
"@.$.$.@.:.Q [ C +.M U ! W y W *.Q V ( I  .F ~ ~  .%.%.[ ( W ( N H %.%.) S $.] @.@.:.( W *. . .N :.k l ..<.{ %. ...d h 1. .[ ~ g N *. .S t.t.g Q  .$.[ Q &.Q [ %.",
"2.-.=.$.[ [ F 7 M 9 ~ U I U [ %.Q N S U  .I ) ~ Q ) ) Q Q  .[ S W R Q @.[ ) 2.7.;.0.Q :.%.] 1.%.U 1.1.5.U U *. .&. .( >.*.] # M >.) %.[ I Q 6 W  .H ) $.&.:.9.=.",
") ( $.$.) ) H Z W H W f M ) )  .W W I W Q ] { *.) N  .:.%.$.[ ~ N Z W ! ) v $.:.-.( W 2.$.:.q.*.g ~ ) L Q S ;.$. .*.I ! :.N ) %.S  .&.&.[ %.M i S S ) [ 9 / :.:.",
"$.( -.=.$.) $.:.&. .W 6 ( M h ! ) [ W U { %...:. .[ ( %.:.) [ [ 9 M / ! ! W ) #.$.R $.;.&.:.,.Q U K p F U g { >.%.L !  .%.I :.&.! ) %.%.) ) ! M v W / T ) ) S ) ",
"S -.;.@.&.%.,.:.{ &.g y Q y ~ K F $.Q ..j U *. .Q S ) %.%.) ( I C S Z Q M E 9 S $.@.:.%.$.:.:._ >.( I V K Q V  .*.) ~ S j ) | ( V W [ @.) ) ! V 5 R ! M ! + C &.",
") W ) :.@.:.&.:.) u N 6 ( ) K M H ) W @.[ ) ) ( ! Q ! R ) [ ( S H S g I Z 9 7 % R =.W &.:.:.[ G 1.{  .V 8 | d g { V ~ { ! I ! ) V W V [ $.+.S 9 Z C ! ! M 9 & ! ",
"-./ $.:.$.2.$. .W M N I W ) C i S V N ) H K W p H =.! W -.%.Q H ) V W S W A A W Z -.) 5.:.:.....:. .Q j 3.) V V L Q V ~ V ~ f U ) W W :.%.W H b W ) W W W W W @.",
") +.3.+.) $./ +.[ %.8 U ] Q Q Q 7 M M M ~ Q I V [ ) W ! %.Q =.) ! M W A ) W W +.[ [ :.9.$.&. .[ ~  .U  .5.%.M U ~ I K { ~ S S ) ) W ( $.! [ $.8 H ( M  .) ( ) :."
};
