/* XPM */
static char *result[] = {
/* columns rows colors chars-per-pixel */
"80 80 250 2 ",
"   c #18110D",
".  c #1D1515",
"X  c #1B0B10",
"o  c #3B1B0D",
"O  c #250618",
"+  c #27171A",
"@  c #3C1F16",
"#  c #3D2216",
"$  c #3D2219",
"%  c #332016",
"&  c #2C211F",
"*  c #2C1B23",
"=  c #2A1925",
"-  c #331D23",
";  c #381926",
":  c #3A2328",
">  c #382732",
",  c #31272F",
"<  c #131525",
"1  c #431E0D",
"2  c #5B1F00",
"3  c #48240F",
"4  c #432519",
"5  c #46291B",
"6  c #4B2B1B",
"7  c #462514",
"8  c #532E1A",
"9  c #562D15",
"0  c #54321C",
"q  c #5B341C",
"w  c #5B3417",
"e  c #593212",
"r  c #7B2A04",
"t  c #64331B",
"y  c #643A1C",
"u  c #6B3B1B",
"i  c #69371B",
"p  c #733B19",
"a  c #6D2A0C",
"s  c #46282B",
"d  c #583623",
"f  c #482B34",
"g  c #532E34",
"h  c #4C3336",
"j  c #543236",
"k  c #5B363C",
"l  c #5E393E",
"z  c #593635",
"x  c #562928",
"c  c #663B24",
"v  c #653A3C",
"b  c #753A31",
"n  c #531E15",
"m  c #77471B",
"M  c #6C431E",
"N  c #5C4834",
"B  c #5D462E",
"V  c #694128",
"C  c #764927",
"Z  c #664837",
"A  c #774937",
"S  c #77553A",
"D  c #765333",
"F  c #3B3845",
"G  c #3A3F53",
"H  c #443C49",
"J  c #593A42",
"K  c #633D41",
"L  c #7C3F41",
"P  c #24425E",
"I  c #46444C",
"U  c #584449",
"Y  c #4A4756",
"T  c #534B59",
"R  c #56555C",
"E  c #4F525C",
"W  c #6B4345",
"Q  c #6B4748",
"!  c #744B4D",
"~  c #774A4A",
"^  c #724D50",
"/  c #785757",
"(  c #6E534D",
")  c #544E61",
"_  c #5A5365",
"`  c #595567",
"'  c #525069",
"]  c #635B6D",
"[  c #635964",
"{  c #655D73",
"}  c #6A6468",
"|  c #756769",
" . c #6B6274",
".. c #6C6778",
"X. c #73697A",
"o. c #72737B",
"O. c #6F645A",
"+. c #862A03",
"@. c #893504",
"#. c #943301",
"$. c #993803",
"%. c #933615",
"&. c #A43904",
"*. c #A93805",
"=. c #8A3B26",
"-. c #C73F04",
";. c #88501B",
":. c #B74406",
">. c #B14B14",
",. c #875727",
"<. c #885A37",
"1. c #965135",
"2. c #B2562E",
"3. c #8E6930",
"4. c #AC713D",
"5. c #C74A05",
"6. c #D74D05",
"7. c #D25305",
"8. c #D9540A",
"9. c #C84C16",
"0. c #D75718",
"q. c #CD5212",
"w. c #E85809",
"e. c #FA5A06",
"r. c #E65916",
"t. c #F75E15",
"y. c #FC6518",
"u. c #F77015",
"i. c #CE5528",
"p. c #FD7738",
"a. c #F46E2B",
"s. c #DB6525",
"d. c #884B4A",
"f. c #895747",
"g. c #9B534C",
"h. c #875657",
"j. c #985556",
"k. c #8C4D4F",
"l. c #A75D54",
"z. c #8A6848",
"x. c #956844",
"c. c #9A7753",
"v. c #966E50",
"b. c #A76557",
"n. c #AC704F",
"m. c #8E5B63",
"M. c #916E6F",
"N. c #A96B68",
"B. c #B56B65",
"V. c #B8746B",
"C. c #AA6B75",
"Z. c #B97775",
"A. c #AD7571",
"S. c #CC764D",
"D. c #F77446",
"F. c #C57B78",
"G. c #D37B71",
"H. c #E17F7C",
"J. c #FE8F32",
"K. c #FE8910",
"L. c #A5835B",
"P. c #95807D",
"I. c #B98777",
"U. c #AA866D",
"Y. c #C58553",
"T. c #C6824D",
"R. c #F98D50",
"E. c #C8837B",
"W. c #D78575",
"Q. c #C69471",
"!. c #F19373",
"~. c #FEA56B",
"^. c #FEAC75",
"/. c #E5A46E",
"(. c #786D83",
"). c #7C7287",
"_. c #73718F",
"`. c #84798C",
"'. c #897B91",
"]. c #B87584",
"[. c #C57C86",
"{. c #618792",
"}. c #948386",
"|. c #8B8396",
" X c #938B9A",
".X c #93898E",
"XX c #BB8986",
"oX c #AF968E",
"OX c #9A98B4",
"+X c #9691A6",
"@X c #A49AAA",
"#X c #AEAABA",
"$X c #AAA6B7",
"%X c #B4ABB7",
"&X c #B3A8AD",
"*X c #C88687",
"=X c #D68C84",
"-X c #C89585",
";X c #D6988B",
":X c #CC9096",
">X c #E6968A",
",X c #F49687",
"<X c #E99B94",
"1X c #ED928E",
"2X c #D5A996",
"3X c #CFA592",
"4X c #F7A68A",
"5X c #FEB788",
"6X c #EBA599",
"7X c #F7AA98",
"8X c #FBB69A",
"9X c #EAA28D",
"0X c #D890A6",
"qX c #E297AA",
"wX c #D8B5A9",
"eX c #CBB0AF",
"rX c #E9AAA1",
"tX c #F3ADA3",
"yX c #FBABA5",
"uX c #E7B7A8",
"iX c #FBBAA5",
"pX c #F8B8A7",
"aX c #F5BEB2",
"sX c #F5ACB7",
"dX c #FEC399",
"fX c #FCC3AC",
"gX c #FDCAAC",
"hX c #FDC5A7",
"jX c #E8C6B8",
"kX c #FCCCBC",
"lX c #F9C6B7",
"zX c #F8D2BE",
"xX c #EEC6AD",
"cX c #E8CDBB",
"vX c #B9B4C8",
"bX c #C6BBCD",
"nX c #CEC7D3",
"mX c #F8CDC0",
"MX c #FBDBCD",
"NX c #FAD7C7",
"BX c #F5DACD",
"VX c #FBE2D4",
"CX c #FAE9DC",
"ZX c #FCE1CA",
"AX c #DAD6E7",
"SX c #E4DCEE",
"DX c #EAE6F8",
"FX c #F1EDFB",
"GX c #FAF1F2",
"HX c None",
/* pixels */
"HXHXHXHXHXHXHXHXHXHXHXHXHXHXHXHXHXHXHXHXHXHXHXHXHXHXHXHXHXHXHXHXHXHXHXHXHXHXHXJ.J.R.J.K.K.K.HXHXHXHXHXHXHXHXHXHXHXHXHXHXHXHXHXHXHXHXHXHXHXHXHXHXHXHXHXHXHXHXHXHX",
"HXHXHXHXHXHXHXHXHXHXHXHXHXHXHXHXHXHXHXHXHXHXHXHXHXHXHXHXHXHXHXHXHXHXHXR.~.~.^.^.~.~.~.R.J.J.u.u.u.HXHXHXHXHXHXHXHXHXHXHXHXHXHXHXHXHXHXHXHXHXHXHXHXHXHXHXHXHXHXHX",
"HXHXHXHXHXHXHXHXHXHXHXHXHXHXHXHXHXHXHXHXHXHXHXHXHXHXHXHXHXHXHXHXHX~.~.5X5XdXdXdX5X5XR.R.p.D.p.r.8.w.HXHXHXHXHXHXHXHXHXHXHXHXHXHXHXHXHXHXHXHXHXHXHXHXHXHXHXHXHXHX",
"HXHXHXHXHXHXHXHXHXHXHXHXHXHXHXHXHXHXHXHXHXHXHXHXHXHXHXHXHXHXHXHXR.~.dX^.~.~.^.dX8X5XR.p.p.R.D.0.7.w.HXHXHXHXHXHXHXHXHXHXHXHXHXHXHXHXHXHXHXHXHXHXHXHXHXHXHXHXHXHX",
"HXHXHXHXHXHXHXHXHX$XvX$XHXHXHXHXHXHXHXHXHXHXHXHXHXHXHXHXHXHXHXHXR.~.W.p.J.p.p.p.2.>.y.y.t.D.D.q.7.7.8.HXHXHXHXHXHXHXHXHXHXHXHXHXHXHXHXHXHXHXHXHXHXHXHXHXHXHXHXHX",
"HXHXHXHXHXHXHXHXHX$X#X$X$XHXHXHXHXHX0 q HXHXHXHXHXHXHXHXHXHXHXHXJ.p.$.+.:.w.y.7.#.#.y.y.t.t.r.q.7.7.7.HXHXHXHXHXHXHXHXHXHXHXHXHXHXHXHXHXHXHXHXHXHXHXHXHXHXHXHXHX",
"HXHXHXHXHXHXHXHXHX#X#X#X+X[ R HXHXd d z. .HXHXHXHX|.HXHXHXHXHXHXy.s.$.#.+.$.7.&.$.2.e.y.t.y.r.5.7.7.7.HXHXHXHXHXHXHXHXHXHXHXHXHXHXHXHXHXHXHXHXHXHXHXHXHXHXHXHXHX",
"HXHXHXHXHXHXHXHXHX#X$X$X X_ T F d 0 S }.] HXHXHXY ).).HXHXHXHXHXy.t.&.=.h.1.;.2.B.B.0.y.y.y.t.5.7.7.7.HXHXHXHXHXHXHXHXHXHXHXHXHXHXHXHXHXHXHXHXHXHXHXHXHXHXHXHXHX",
"HXHXHXHXHXHXHXHXHXvX#X#X XE I I 0 V | ] ] T F G F I (.HXHXHXHXHXy.r.*.=.b.V.E.>X>XW.i.t.u.u.y.0.7.7.7.HXHXHXHXt HXHXHXHXHXHXHXHXHXHXHXHXHXHXHXHXHXHXHXHXHXHXHXHX",
"HXHXHXHXHXHXHXHXHX#X#X#X XI I h e / {  ...] H F G F ` ..HXHXHXHXt.q.*.=.Z.1X8XhXiXiXS.5.u.a.p.u.5.5.:.HXHXHXt t y HXHXHXHXHXHXHXHXHXHXHXHXHXHXHXHXHXHXHXHXHXHXHX",
"HXHXHXHXHXHXHXHXHXvX#X#X+XF > I C | _ ]  . .Y F H H Y (.HXHXHXw.w.$.&.%.S.4XhXlXgX8X~.q.:.r.u.J.u.s.q.>.HXHXt i i i HXHXHXHXHXHXHXHXHXHXHXHXHXHXHXHXHXHXHXHXHXHX",
"HXHXHXHXV x.,.c.Q.vXbX%X@XF F } | _ ] {  .| _ F H H I  ._.HXe.w.:.$.+.=.1.s.!.fXR.R.2.p a #.:.9.q.i.>.>.HXt t t t i i HXHXHXHXHXHXHXHXHXHXHXHXHXHXHXHXHXHXHXHXHX",
"HXHXHXHXc q V V <.L.oXU.&X} Y } { ] ] ] ..X.{ Y H H ) / A.0.:.$.#.+.A {.P P !.iXS.d.o.< G d +.@.#.:.:.:.HXHXt t t i i HXHXHXHXHXHXHXHXHXHXHXHXHXHXHXHXHXHXHXHXHX",
"HXHXHXHXV q q q q M y D nX|.`  .X.{ ] { ..X.(.) Y Y Y ~ ;.$.#.$.#.r x.oX{.+X4X8X!.=X&X] | V r @.:.:.5.5.HXHXHXHXt c i i HXHXHXHXHXHXHXHXHXHXHXHXHXHXHXHXHXHXHXHX",
"HXHXHXHXd q q q q d 0 x.nX$X..X. .X. .{ X.X.`. .Y T ) ) _ { HXHX@.#.b.9X8X8X8XhX,XiXiX7XW.1.*.$.>.5.:.7.HXHXHXHXHXi c i u HXHXHXHXHXHXHXHXHXHXHXHXHXHXHXHXHXHXHX",
"HXHXHXHX0 d 0 q d q q L.AXnX'...(.(.(.{ (.(.'.(.) T ) _  .OXHXHX$.@.l.pXfXfXW.E.S.yXmXlX7XB.9.w.9.w.>.0.HXHXHXHXHXHXi c u u HXHXHXHXHXHXHXHXHXHXHXHXHXHXHXHXHXHX",
"HXHXHXHX0 d 8 q d d e U.FXAX#XX.).).(.X.(.).'.'.{ ) ) _ ] +XOXHX$.$.%.6XiXiXW.1.W.gXgXiX1XB.9.e.r.r.0.i.r.HXHXHXHXHXHXi i i HXHXHXHXHXHXHXHXHXHXHXHXHXHXHXHXHXHX",
"HXHXHXHXd 0 0 d w d e Q.FXSXAX{.(.`.(.(.X.).'. X..) ' _ ] '.OXHX5.:.r V.pX6X1X,X9XfXfX7XG.B.2.e.t.r.t.i.a.w.7.HXHXs.HXp i t HXHXHXHXHXc HXHXHXHXHXHXHXHXHXHXHXHX",
"HXHXHXHX0 0 6 0 0 0 e Q.FXDXDXvX(.`.).(.(.(.'. X'._ ) ' '  XOXp.r.*.+.p 6X9XG.H.W.7X8XW.G.l.a 5.e.t.t.t.i.a.R.s.0.HXHXHXt t HXHXHXHXHXc HXHXHXHXHXHXHXHXHXHXHXHX",
"HXHXHXHXs 6 6 0 0 0 w L.FXDXDXDX X).`.`.).(.'.'.`.{ ' ) _ '.OXS.5.5.$.2 g.7X>X,X7X8X4XW.B.b 2 r w.w.r.r.t.y.a.8.HXHXHXHXHXt HXHXHXHXHXV c HXHXHXHXHXHXHXHXHXHXHX",
"HXHXHXHX6 6 6 6 0 0 y c.HXDXFXFXnX'.`.`.{ Y  X@X{ ) { _.] |.#X2.5.-.#.+.a g.!.8X8X4XG.b.d.d.r a #.-.6.6.w.6.HXHXHXHXHXHXHXp HXHXHXHXHXHXc HXHXHXHXHXHXHXHXHXHXHX",
"HXHXHXHX6 5 5 6 6 0 y L.HXAXFXFXFXvX(.HXHX' @XXXM.HX{ _._.@XOX2.-.*.#.+.HXp f.N.B.b.d.~ d.j.k.@.@.HXHX5.HXHXHXHXHXHXHXHXHXHXHXHXHXHXHXHXu HXHXHXHXHXHXHXHXHXHXHX",
"HXHXHXHX5 5 5 5 5 6 y v.HXHXDXGXFXSXHXHXHXT B x.n.HXHXHXOXvX#X2.HXHXHXHXM.| Q d.g.d.d.g.g.g.j.m.T HXHXHXHXHXHXHXHXHXHXHXHXHXHXHXHXHXHXHXHXHXHXHXHXHXHXHXHXHXHXHX",
"HXHXHXHX5 4 4 5 5 5 w 3.HXHXHXFXFXHXHXHXHXHXB n.Y.HXHXHXHXHXvXHXHXHXHX*X .^ l.F.F.F.F.V.B.N.M.) f h HXHXHXHXHXHXHXHXHXHXHXHXHXHXHXHXHXHXHXHXHXHXHXHXHXHXHXHXHXHX",
"HXHXHXHXHXs # 4 4 5 0 C HXHXHXHXHXHXHXHXHXHXN 3.Y.HXHXHXHXHXHXHXHXH.H.X.U F.<X6XtXrX<X<X[.}.X.f k [.tXHXHXHXHXHXHXHXHXHXHXHXHXHXHXHXHXHXHXHXHXHXHXHXHXHXHXHXHXHX",
"HXHXHXHXHX4 # 4 # # 7 M HXHXHXHXHXHXHXHXHXHXN <.Y.T.HXHXHXHXHXHXHXE.`.U E.kXkXkXfXlXlXyXoXoXf f V.yXyXmXHXHXHXHXHXHXHXHXHXHXHXHXHXHXHXHXHXHXHXHXHXHXHXHXHXHXHXHX",
"HXHXHXHXHX$ $ $ # # # M HXHXHXHXHXHXHXHXHXHXHXZ n.T.HXHXHXHXHXHXHX&XR m.NXMXNXNXzXzXNXuXeXT s ~ >XtXaXaXNXHXHXHXHXHXHXHXHXHXHXHXHXHXHXHXHXHXHX,.M u M HXHXHXHXHX",
"HXHXHXHXHX$ $ $ # # % y HXHXHXHXHXHXHXHXHXHXHXV 4.Y.HXHXHXHXHXHXwXM.~ pXZXVXZXNXMXMXmXjX}.f g h.<XtXaXmXNXVXHXHXHXHXHXHXHXHXHXHXHXHXHXHXHXHXHXHXm u M HXHXHXHXHX",
"HXHXHXHXHX4 $ $ # $ # e HXHXHXHXHXHXHXHXHXHXHXB <.Y.S.HXHXHXHXHXwX&X[.CXCXNXNXZXVXNXuX}.f J f ! 1XtXmXMXMXVXHXHXHXHXHXHXHXHXHXHXHXHXHXHXHXHXHXHXm u u HXHXHXHXHX",
"HXHXHXHXHXHX$ $ # # # 3 c.HXHXHXHXHXHXHXHXHXHX( <.L.T.HXHXHXHXHX].jXwXoXVXyX8XzXoXX.Y ; J f f V.<XsXMXMXMXMXHXHXHXHXHXHXHXHXHXHXHXHXHXHXHXHXHXHX;.m u HXHXHXHXHX",
"HXHXHXHXHXHXHXHX$ $ # 6 D HXHXHXHXHXHXHXHXHXHXHXD n.Y.HXHXHXHXHXv ^ oXoXA.=X3X..> ; g K g ; k.<X7XaXMXMXNXHXHXHXHXHXHXHXHXHXHXHXHXHXHXHXHXHXHXHX;.u u HXHXHXHXHX",
"HXHXHXHXHXHXHXHXHX$ $ # w HXHXHXHXHXHXHXHXHXHXHXZ 3.Y.S.HXHXHXHXv k Q M.| M.[ = k K K g ; J =X6XtXkXMXMXMXHXHXHXHXHXHXHXHXHXHXHXHXHXHXHXHXHXHXHX3.m m HXHXHXHXHX",
"HXHXHXHXHXHXHXHXHXHX$ $ q HXHXHXHXHXHXHXHXHXHXHXN S Y.T.HXHXHXHXv v k Q X.} H s J g > ; = j.<X6XpXmXMXMXBXHXHXHXHXHXHXHXHXHXHXHXHXHXHXHXHXHXHXHX3.m m HXHXHXHXHX",
"HXHXV HXHXHXHXHXHXHXHX6 9 HXHXHXHXHXHXHXHXHXHXHXHXD n.Y.HXHXHXHXM.; s ; T } h - > = ; ; > *X<XtXaXmXMXVXHXHXHXHXHXHXHXHXHXHXHXHXHXHXHXHXHXHXHXHX3.m m HXHXHXHXHX",
"HXHXc HXHXHXHXHXHXHXHXHX8 HXHXHXHXHXHXHXHXHXHXHXHXZ 4.Y.S.HXHX:X2Xf O O O , , O O O = O W >X<XtXaXMXVXCXHXHXHXHXHXHXHXHXHXHXHXHXHXHXHXHXHXHXHXHX3.m p HXHXHXHXHX",
"HXHXc HXHXHXHXHXHXHXHXHXy HXHXHXHXHXHXHXHXHXHXHXHXN D n.4.HX*XC.m.h.s O s v d.h.k.k.k.! N.>XtXaXmXMXCXHXHXHXHXHXHXHXHXHXHXHXHXHXHXHXHXHXHXHXHXHX3.m HXHXHXHXHXHX",
"HXHXHXHXHXHXc HXHXHXHXHXHXHXHXHXHXHXHXHXHXHXHXHXHXN / Q.-X-XZ.h.h > HXHXF.>X6X<X<X7X1X=X1X<XpXaXMXMXVXHXHXHXHXHXHXHXHXHXHXHXHXHXHXHXHXHXHXHXHXHXHXHXHXHXHXHXHXHX",
"HXHXHXHXHXHX1 c HXHXHXHXHXHXHXHXHXHXHXHXHXHXHXHXHXHXS uXMXCX@Xs > HXHXHX8XfXkXkXyX>X1X<X6XtXaXmXMXCXHXHXHXHXHXHXHXHXHXHXHXHXHXHXHXHXHXHXHXHXHXHXHXHXHXHXHXHXHXHX",
"HXHXHXHXHXHXo 1 c HXHXHXHXHXHXHXHXHXHXHXHXHXHXHXHXHXO.Z f.=XCX( HXHXHXHXgXZXhX;X;X<XrXtXsXaXaXMXmXHXHXHXHXHXHXHXHXHXHXHXHXHXHXHXHXHXHXHXHXHXHXHXHXHXHXHXHXHXHXHX",
"HXHXHXHXHXHXo o 3 c 3.HXHXHXHXHXHXHXHXHXHXHXHXHXHXwXcX;XV <.uXCXHXHXHXZ 2XM.E.W.<XtXaXmXmXkXlX3XU + HXHXHXHXHXHXHXHXHXHXHXHXHXHXHXHXHXHXHXHXHXHXHXHXHXHXHXHXHXHX",
"HXHXHXHXHXHX1 o 1 3 t ,.HXHXHXHXHXHXHXHXHXHXHXHXHXHX3XwXA.D I.HXHXHXz h > = Z.tXrXaXmXmXlX3X/ - + 0 + HXHXHXHXHXHXHXHXHXHXHXHXHXHXHXHXHXHXHXHXHXHXHXHXHXHXHXHXHX",
"HXHXHXHXHXHXHXHX1 7 3 HXHXHXHXHXHXHXHXHXHXHXHXHXHXHXwX3Xc.C n.uXHXHX- , > J C.rXlXmXjXXXh.h + . s V.N.z HXHXHXHXHXHXHXHXHXHXHXHXHXHXHXHXHXHXHXHXHXHXHXHXHXHXHXHX",
"HXHXHXHXHXHXHXHXHXHXHXHXHXHXHXHXHXHXHX4.;.,.HXHXHXHXXXXX-XU.wXcXNXzXI.J ! h.].sXwXU.Q s s + + . v B.;X;XHXHXHXHXHXHXHXHXHXHXHXHXHXHXHXHXHXHXHXHXHXHXHXHXHXHXHXHX",
"HXHXHXHXHXHXHXHXHXHXHXHXHXHXHXHXL.4.<.;.t M m ,.HXHXA.3XjXBXNXBXBXZXNXA.C.[.:X*XW h j z % . . + d.V.;X6X6XHXHXHXHXHXHXHXHXHXHXHXHXHXHXHXHXHXHXHXHXHXHXHXHXHXHXHX",
"HXHXHXHXHXHXHXHXHXHXHXHXHXHXHXHX,.V y y y t q y M m n.2XjXjXjXBXCXVXZX;X:X].M.W W W l : : : + + l.XX2XuXpXHXHXHXHXHXHXHXHXHXHXHXHXHXHXHXHXHXHXHXHXHXHXHXHXHXHXHX",
"HXHXHXHXHXHXHXHXHXHXHXHXHXHXHXC c q t t w y y w w w M ,.L.3XjXjX3XxXxXI.Q N k Z W j : g s s % : b.-XwXmXpXpXHXHXHXHXHXHXHXHXHXHXHXHXHXHXHXHXHXHXHXHXHXHXHXHXHXHX",
"HXHXHXHXHXHXHXHXHXHXHXHXHXHXHXHXHXHXq q q q q q 6 7 9 9 9 M x.Q.-X2XjXI.k h j h s > k v f s $ s B.-XuXBXlXpXHXHXHXHXHXHXHXHXHXHXHXHXHXHXHXHXHXHXHXHXHXHXHXHXHXHX",
"HXHXHXHXHXHXHXHXHXHXHXHXHXHXHXHXHXHXHXHXq q q 9 5 6 8 8 8 6 3 3 e <.3XU.m.h.U : f Z W k g f - x V.:XwXmXkXiXpXHXHXHXHXHXHXHXHXHXHXHXHXHXHXHXHXHXHXHXHXHXHXHXHXHX",
"HXHXHXHXHXHXHXHXHXHXHXHXHXHXHXHXHXHXHXHXHXHX0 8 8 8 8 6 6 7 6 5 4 o 3 9 V A S Q Q W W l j g % z V.;XuXzXkXiXiXHXHXHXHXHXHXHXHXHXHXHXHXHXHXHXHXHXHXHXHXHXHXHXHXHX",
"HXHXHXHXHXHXHXHXHXHXHXHXHXHXHXHXHXHXHXHXHXHXHXHXHX6 6 6 6 5 7 7 4 4 4 # o 3 n 9 Z ^ W W k z + z Z.;XuXjXlXiXiXHXHXHXHXHXHXHXHXHXHXHXHXHXHXHXHXHXHXHXHXHXHXHXHXHX",
"HXHXHXHXHXHXHXHXHXHXHXHXHXHXHXHXHXHXHXHXHXHXHXHXHXHXHXHX6 6 4 4 7 4 4 o # 4 s z W ^ ! W l k - z Z.;XuXgXgXiXiXiXHXHXHXHXHXHXHXHXHXHXHXHXHXHXHXHXHXHXHXHXHXHXHXHX",
"HXHXHXHXHXHXHXHXHXHXHXHXHXHXHXHXHXHXHXHXHXHXHXHXHXHXHXHXHXHX. % # @ 4 0 v W ~ ! Q Q ^ Q v k + j E.2X8X2X3XfX7XrXHXHXHXHXHXHXHXHXHXHXHXHXHXHXHXHXHXHXHXHXHXHXHXHX",
"HXHXHXHXHXHXHXHXHXHXHXHXHXHXHXHXHXHXHXHXHXHXHXHXHXHXHXHXHXHX      . > / h./ W W Q Q ^ ^ W Z x V x.1.C e Q.iX6X<XHXHXHXHXHXHXHXHXHXHXHXHXHXHXHXHXHXHXHXHXHXHXHXHX",
"HXHXHXHXHXHXHXHXHXHXHXHXHXHXHXHXHXHXHXHXHXHXHXHXHXHXHXHXHXHX, F T R o.R ~ / ~ W Q ! ~ C C M u q e e o U.kX7X;X=XHXHXHXHXHXHXHXHXHXHXHXHXHXHXHXHXHXHXHXHXHXHXHXHX",
"HXHXHXHXHXHXHXHXHXHXHXHXHXHXHXHXHXHXHXHXHXHXHXHXHXHXHXHXHXHXG ).&X&XeX).^ ^ W W W ~ 3.t w y q 9 8 7 f.hXhX7X>XE.E.HXHXHXHXHXHXHXHXHXHXHXHXHXHXHXHXHXHXHXHXHXHXHX",
"HXHXHXHXHXHXHXHXHXHXHXHXHXHXHXHXHXHXHXHXHXHXHXHXHXHXHXHXHXHXG { +XeX&X}.( ~ W W W f.C t y y q 0 A V.xXhXfXyX1XF.F.HXHXHXHXHXHXHXHXHXHXHXHXHXHXHXHXHXHXHXHXHXHXHX",
"HXHXHXHXHXHXHXHXHXHXHXHXHXHXHXHXHXHXHXHXHXHXHXHXHXHXHXHXHXHXHX'  XeXnX&XR ~ W K ~ ,.c c c z h . HX;XpXgXgXiX1XF.Z.HXHXHXHXHXHXHXHXHXHXHXHXHXHXHXHXHXHXHXHXHXHXHX",
"HXHXHXHXHXHXHXHXHXHXHXHXHXHXHXHXHXHXHXHXHXHXHXHXHXHXHXHXHXHXHXE @XnXnX%XR ~ ~ W W W W W K K h & HX-X8XhXgXhX7XH.Z.Z.HXHXHXHXHXHXHXHXHXHXHXHXHXHXHXHXHXHXHXHXHXHX",
"HXHXHXHXHXHXHXHXHXHXHXHXHXHXHXHXHXHXHXHXHXHXHXHXHXHXHXHXHXHXHXY }.%XbXo.U ~ W W W W ~ K K k g + HXHX8XgXgXgX7X,XF.A.HXHXHXHXHXHXHXHXHXHXHXHXHXHXHXHXHXHXHXHXHXHX",
"HXHXHXHXHXHXHXHXHXHXHXHXHXHXHXHXHXHXHXHXHXHXHXHXHXHXHXHXHXHXHXHX} o...h.h.~ W W W K W W K k g & HXHXiXhXgXgX8X,XW.C. .HXHXHXHXHXHXHXHXHXHXHXHXHXHXHXHXHXHXHXHXHX",
"HXHXHXHXHXHXHXHXHXHXHXHXHXHXHXHXHXHXHXHXHXHXHXHXHXHXHXHXHXHXHXHXeXP.} ( k.! ! W K W W W v l h & HXHXHX8XgXdXuXoXN.N.o.] HXHXHXHXHXHXHXHXHXHXHXHXHXHXHXHXHXHXHXHX",
"HXHXHXHXHXHXHXHXHXHXHXHXHXHXHXHXHXHXHXHXHXHXHXHXHXHXHXHXHXHXHXHX.Xo.} E U ~ ! W ! K W K N l f & HXHXHXI.gX9X.X..) `  .Y HXHXHXHXHXHXHXHXHXHXHXHXHXHXHXHXHXHXHXHX",
"HXHXHXHXHXHXHXHXHXHXHXHXHXHXHXHXHXHXHXHXHXHXHXHXHXHXHXHXHXHXHXHX| } } E I U W W K W K K K J s & HXHXHXP.2XXXo.` ` E Y I HXHXHXHXHXHXHXHXHXHXHXHXHXHXHXHXHXHXHXHX",
"HXHXHXHXHXHXHXHXHXHXHXHXHXHXHXHXHXHXHXHXHXHXHXHXHXHXHXHXHXHXHXHXHX} R I I I J v K K K K v J s + HXHXHXHX}.}.} ` E E E F HXHXHXHXHXHXHXHXHXHXHXHXHXHXHXHXHXHXHXHX",
"HXHXHXHXHXHXHXHXHXHXHXHXHXHXHXHXHXHXHXHXHXHXHXHXHXHXHXHXHXHXHXHXHX/ E I I , ; j J K K K k k :   HXHXHXHX| } R E E ` F & HXHXHXHXHXHXHXHXHXHXHXHXHXHXHXHXHXHXHXHX",
"HXHXHXHXHXHXHXHXHXHXHXHXHXHXHXHXHXHXHXHXHXHXHXHXHXHXHXHXHXHXHXHXHXN.x = = + + : j k j k k k :   HXHXHXHXHX} R R Y > , , HXHXHXHXHXHXHXHXHXHXHXHXHXHXHXHXHXHXHXHX",
"HXHXHXHXHXHXHXHXHXHXHXHXHXHXHXHXHXHXHXHXHXHXHXHXHXHXHXHXHXHXHXHXHXh.v & = = = HXHXj j g j k :   HXHXHXHXHXh.N : = , > & HXHXHXHXHXHXHXHXHXHXHXHXHXHXHXHXHXHXHXHX",
"HXHXHXHXHXHXHXHXHXHXHXHXHXHXHXHXHXHXHXHXHXHXHXHXHXHXHXHXHXHXHXHXHXz.b * . + Z HXHXHXHXHXHXHXHXHXHXHXHXHXHXN.h.x , = = f HXHXHXHXHXHXHXHXHXHXHXHXHXHXHXHXHXHXHXHX",
"HXHXHXHXHXHXHXHXHXHXHXHXHXHXHXHXHXHXHXHXHXHXHXHXHXHXHXHXHXHXHXHXHXc.x.z.z.L.L.HXHXHXHXHXHXHXHXHXHXHXHXHXHXHXv.<.S Z z.c.HXHXHXHXHXHXHXHXHXHXHXHXHXHXHXHXHXHXHXHX",
"HXHXHXHXHXHXHXHXHXHXHXHXHXHXHXHXHXHXHXHXHXHXHXHXHXHXHXHXHXHXHXHXHXHXc.c.z.S / HXHXHXHXHXHXHXHXHXHXHXHXHXHXHXHXz.v.c.c.W HXHXHXHXHXHXHXHXHXHXHXHXHXHXHXHXHXHXHXHX",
"HXHXHXHXHXHXHXHXHXHXHXHXHXHXHXHXHXHXHXHXHXHXHXHXHXHXHXHXHXHXHXHXHXHXz.c.L.z.HXHXHXHXHXHXHXHXHXHXHXHXHXHXHXHXHXA x = < = HXHXHXHXHXHXHXHXHXHXHXHXHXHXHXHXHXHXHXHX",
"HXHXHXHXHXHXHXHXHXHXHXHXHXHXHXHXHXHXHXHXHXHXHXHXHXHXHXHXHXHXHXHXHXHXN.z.N B HXHXHXHXHXHXHXHXHXHXHXHXHXHXHXHXHXA x : Z z.HXHXHXHXHXHXHXHXHXHXHXHXHXHXHXHXHXHXHXHX",
"HXHXHXHXHXHXHXHXHXHXHXHXHXHXHXHXHXHXHXHXHXHXHXHXHXHXHXHXHXHXHXHXHXqXqX~ > = HXHXHXHXHXHXHXHXHXHXHXHXHXHXHXHXHXHXz.v.v./ H HXHXHXHXHXHXHXHXHXHXHXHXHXHXHXHXHXHXHX",
"HXHXHXHXHXHXHXHXHXHXHXHXHXHXHXHXHXHXHXHXHXHXHXHXHXHXHXHXHXHXHXHX0XsXm.> = = HXHXHXHXHXHXHXHXHXHXHXHXHXHXHXHXHXHXA j.[.].h.: HXHXHXHXHXHXHXHXHXHXHXHXHXHXHXHXHXHX",
"HXHXHXHXHXHXHXHXHXHXHXHXHXHXHXHXHXHXHXHXHXHXHXHXHXHXHXHXHXHXHX0XqXC.> . = HXHXHXHXHXHXHXHXHXHXHXHXHXHXHXHXHXHXHXHXl.sX[.j.K HXHXHXHXHXHXHXHXHXHXHXHXHXHXHXHXHXHX",
"HXHXHXHXHXHXHXHXHXHXHXHXHXHXHXHXHXHXHXHXHXHXHXHXHXHXHXHXHXHX0X0X].H HXO O HXHXHXHXHXHXHXHXHXHXHXHXHXHXHXHXHXHXHXHXHXF.[.j.d.v HXHXHXHXHXHXHXHXHXHXHXHXHXHXHXHXHX",
"HXHXHXHXHXHXHXHXHXHXHXHXHXHXHXHXHXHXHXHXHXHXHXHXHXHXHXHXHXC.*XM.J . HXHXHXHXHXHXHXHXHXHXHXHXHXHXHXHXHXHXHXHXHXHXHXHXj.[.N.j.L h HXHXHXHXHXHXHXHXHXHXHXHXHXHXHXHX",
"HXHXHXHXHXHXHXHXHXHXHXHXHXHXHXHXHXHXHXHXHXHXHXHXHXHXHXHXHX$ ; = HXHXHXHXHXHXHXHXHXHXHXHXHXHXHXHXHXHXHXHXHXHXHXHXHXHXHX[.[.C.h.f HXHXHXHXHXHXHXHXHXHXHXHXHXHXHXHX",
"HXHXHXHXHXHXHXHXHXHXHXHXHXHXHXHXHXHXHXHXHXHXHXHXHXHXHXHXHXHXHXHXHXHXHXHXHXHXHXHXHXHXHXHXHXHXHXHXHXHXHXHXHXHXHXHXHXHXHXj.=X].J * HXHXHXHXHXHXHXHXHXHXHXHXHXHXHXHX",
"HXHXHXHXHXHXHXHXHXHXHXHXHXHXHXHXHXHXHXHXHXHXHXHXHXHXHXHXHXHXHXHXHXHXHXHXHXHXHXHXHXHXHXHXHXHXHXHXHXHXHXHXHXHXHXHXHXHXHXHXg x O HXHXHXHXHXHXHXHXHXHXHXHXHXHXHXHXHX"
};
