/* XPM */
static char *result[] = {
/* columns rows colors chars-per-pixel */
"80 80 123 2 ",
"   c #1C1B12",
".  c #211D15",
"X  c #231E1A",
"o  c #222313",
"O  c #252813",
"+  c #2B2D15",
"@  c #25221B",
"#  c #2A251D",
"$  c #27291A",
"%  c #2C2B1C",
"&  c #312F1D",
"*  c #2C3316",
"=  c #2E331A",
"-  c #323417",
";  c #333B16",
":  c #32341D",
">  c #343B1C",
",  c #393D1D",
"<  c #272420",
"1  c #2A2621",
"2  c #2E2B23",
"3  c #302721",
"4  c #322D24",
"5  c #342E29",
"6  c #382F2B",
"7  c #2F3121",
"8  c #343324",
"9  c #393524",
"0  c #353A22",
"q  c #3B3C24",
"w  c #36322A",
"e  c #3B342C",
"r  c #37382A",
"t  c #3D3B2B",
"y  c #3B2E32",
"u  c #373035",
"i  c #3B3631",
"p  c #3E3A32",
"a  c #423623",
"s  c #4C3623",
"d  c #423E26",
"f  c #483925",
"g  c #42372B",
"h  c #413C2D",
"j  c #4A3C2E",
"k  c #5B3F26",
"l  c #412E34",
"z  c #413731",
"x  c #433C33",
"c  c #493F35",
"v  c #45343B",
"b  c #453E39",
"n  c #483E3A",
"m  c #384017",
"M  c #35431C",
"N  c #3B421D",
"B  c #3D491F",
"V  c #364321",
"C  c #3D4324",
"Z  c #3D4A23",
"A  c #3E412A",
"S  c #3E492A",
"D  c #3E4031",
"F  c #43461D",
"G  c #40491F",
"H  c #414425",
"J  c #4D4526",
"K  c #434924",
"L  c #4B4C24",
"P  c #43432C",
"I  c #49452C",
"U  c #444B2B",
"Y  c #494B2C",
"T  c #465026",
"R  c #495327",
"E  c #45532E",
"W  c #4E542D",
"Q  c #464234",
"!  c #4A4435",
"~  c #454A32",
"^  c #4C4934",
"/  c #47423A",
"(  c #4C453C",
")  c #47493D",
"_  c #4E493C",
"`  c #524637",
"'  c #514B36",
"]  c #5E4932",
"[  c #51463D",
"{  c #58473A",
"}  c #524A3D",
"|  c #594C3D",
" . c #465333",
".. c #4A5334",
"X. c #475038",
"o. c #4B523B",
"O. c #525334",
"+. c #53523C",
"@. c #5D513C",
"#. c #503D42",
"$. c #583F50",
"%. c #474542",
"&. c #4D4641",
"*. c #474943",
"=. c #4E4942",
"-. c #514742",
";. c #534A43",
":. c #5A4D45",
">. c #59464B",
",. c #554D49",
"<. c #594E4A",
"1. c #565143",
"2. c #5C5144",
"3. c #54504A",
"4. c #5C524A",
"5. c #605245",
"6. c #635846",
"7. c #62554B",
"8. c #66584E",
"9. c #635551",
"0. c #645951",
"q. c #695C52",
"w. c #726357",
/* pixels */
"( ( ! ( e ! ,.;.;.,.-.-.-.-.-.-._ ^ > ! ;.-.#.-.-.-.>.,.&.&.;.-.-.=.( ! 8 n &./ ( ) x g &.( ( ! Q ( h w ( ( %.&.%.( *.! P A t 8 x Q D x Q ! Q Q x ! ! ( } _ ^ ^ ",
"! ! ! ^ t ( &.-.,.&.-.-.,.-.,.;.( ( t ! ;.-.-.-.-.;.&.n ( ( ( ( &.&.! ( 7 z &./ ) =.( p ( ! _ ! h Q x 8 ( P ~ / Q ) b / 9 e t 7 / &.Q Q Q x x Q Q ! ! ( _ ^ ! ` ",
"} ( ! -.x &.,.&.-.&.-.-.-.-.-.&.( _ t ! ;.-.;.-.#.b n &.;.;.[ ( ( &.} Q 7 A _ ) / &.( z ( ( &.( q - > = : N > 0 > > 8 6 | 5.:.x z ,.-.( ( ! / Q Q ( ! ( &.=.} | ",
";._ ! } p ( ,.=.,.,.-.&.-.-.-.[ ( } t x >.-.b z / ,.-.<.;.-.( ( &._ ;.Q 0 0 A ( &.,.x 6 ( ! / w = ^ +.^ ^ ' +.+.O.+.! w [ ` ' ! g ;.&.;.-.&.[ ( ! ( ! :.4.4.4.;.",
"_ _ ( _ i ! &.;.,.-.Q x ( &.-.} ( _ z 4 ! e z <.;.-.;.-.( ( ( -.;._ -.x V 7 5 u u z e 4 e e 5 0 q 4.<.,.;.;.;.;.:.;.~ # ^ ` [ [ 4 i ( } -.;.-.n Q Q ;.q.:.;._ ( ",
"! ( } } p z &.;.;.b Q x / ( ( &.( _ z $ e [ ,.-.;.;.&.-.;.-.;.;.} } -.! = / ,.%.&.;.,.,.-.-.I P P } ! / ! ( ( / ( ( ! % ! ` ` ` $ ( <.-._ -.:.:./ &.7.-.&.-.&.( ",
"! } -.;.u b ,._ b x n n ( &.&.&.-.} h 4 9.;.( -.-.( -.,.,.,.,.1.1.} &.! 2 b &.n n &.%.&.&.x h C q _ _ ( ( &.&.( ( ( ( 1 ! [ ` ! $ ,.| ;._ [ :.<.:.,.[ -.-.;.} ( ",
"} -.} -.e n ,./ ( ( ( &.( ( &.-.-.[ 4 z ;.( ( &.[ ( ,.,.<.,.[ -.-.( &./ 8 p b %.%.n ( ( ( Q ( P : ( ! ( ( &.( ( ( _ ! 3 [ ^ { } @ i _ } ! ^ ,.-.-._ [ &.-.-.=._ ",
"-.} } ;.w p &.b &./ ( &.( -.-.-.;.! 4 e ;.( [ -.( [ ;.;.;.-.[ [ } -.-.x 7 r D ) &.&.&.( &.n -.x : ( ! ) x z / &.( _ Q : h d ' :.# # p P I ^ [ ;.` } ;.;.;.,.;.-.",
";.( Q ! 8 p _ ( -.&.( -.( ( ,.;.! c i e ;.[ ( [ &.( -.-.[ ( [ ( -.-.-.x = 0 D &.&.&.n n &.( &.t t ( n ( x b &.( ! ! P : : Q :.[ $ % @ O : 8 8 : C x x b &.;.&.&.",
"8 4 : : & i 1.} -.3.( -.} t Q t h ( e 5 ;.-.-.-.&.[ -.[ [ [ [ -.-.&.&.Q : 0 5 8 8 4 5 w e e e : 0 ( ! ( ! &.&.b _ ;._ - ; = | 7.:.:.;./ Q ^ _ ! ^ ( ! ! t i e 8 ",
"_ } | 1.0 w ;.( ;.-.( ;.( e e c ( ( e e -.n [ n ( ( &.( [ &.-.-.} ( ( h V A f : t Q ;.-.' ` t 1 z } ! ! ( &./ ( -.-.( : M + 4.w.q.<.7.q.7.7.2.1.| 2.5.2.2.4.4.2.",
";.} _ | h $ _ ,.4.;.<.<.e Q ! [ ( _ e # x h h e x z e t e z e 8 r t n h V ~ ! ! ( ~ ! ( [ ' z 2 Q ;.! ( &.( #.( &.&.h > = $ 4.4.[ -.( [ ;.;.:.;.;.} [ ( ( _ [ } ",
"( ( ( _ Q $ i ,.4.:.4.;.t ( ` ( ( ! w p 7.4.<.4.9.4.7.9.<.4.t : : ( ( P : Q ( P Q / _ ( ^ ( i < x } ! ( ! ( / %./ i 8 B ; $ 1.4.-.[ } ( [ [ ;.} } ;.[ ( ( _ _ ! ",
"_ ( ( &.! : 3 ( 7.7.[ z n [ ( -.} ! t Q ;.I ! ( -.-.;.;.;.,.z : 8 x h > 7 5 4 8 0 8 w w 4 & 2 $ w j Q ! / ( &.( ( / V > o w 4.1.[ [ [ ( [ [ ;.[ [ ( [ ( ( ( _ ! ",
"( _ _ -.I $ 6 [ ( e h ( [ -.( } ;.( 9 p | J ! } ( ( [ -.;.4.z 8 & 9 : q 0 ( ( ( ! b ( ( ( ( ( 3 p ! Q ( ( ( &.&./ x q ; X ( 2.-.[ [ &.[ [ ( } ( ( _ ( _ ^ ( _ ! ",
"( ( ( -.I O 5 [ z ! ( ( -.-._ -.1.^ 9 e ] J ! } ( ( } ;.;.4.x P 0 z z S > +.^ ~ / ( ( ( I ^ :.g x ,.Q ( ! n &./ ( [ C M 2 ,.} ;.[ [ [ [ [ ( [ ( _ -._ ( ( _ ^ ( ",
"( ( ( ( ~   4 ( ( ` ! ( &.-.,.| } Q f a k J _ ( ( -.;.<.-.,.h q q t A U U I ! Q Q Q _ ( ! ! | z x ;.! ( &.&.&.( } >.! = e 3.} } } [ -.( _ [ ( _ ( ( ( ( ( ( ( ( ",
"( _ ( [ Q   5 ( ( ! ` n [ -.,.;._ ! s a q P &.-.-.,.-.;.-.<.e C L B C 2.! ( -.) Q _ ! ! ( } ;.z e ,.! ( ( ! ( &.-.| } : e ;.:.-.} [ [ [ ( ( _ ( ( &._ ( ( ( ( ( ",
"_ ! _ [ x # 8 ( c ( ( ( ( ( [ ;._ ! t q F U -.;.;.n &.;.&.,.i > T H , Y Q ;._ ( _ } } ( ( ;.,.p w &.( ( b ! _ -.-.} :.Q 8 ;.;.} ' [ ( [ &._ ( [ } _ ( ( _ _ ( _ ",
"( _ _ -.:.5 4 [ ! ! ! ` ( ~ ! _ [ ` h C B I :.4.,.( ;.;.} ;.e % C N H } ! } ( ;.;.;.;.&.Q ( ;.x w -.( ! ( ( &.( [ :.:.-.e ,.} [ [ _ ` ^ ( ( ( _ ( ( ( ( ( _ ( ! ",
"( ( -.;.;.e # ( c ! g ! ` U U ( ^ ! 0 , H ( <.;.&.&.-.;.-.;.5 @ q ; C ^ _ ;.;.-.;.,.&./ Q ( ,.( 8 &.( ! &.( ! ( [ ;.;.[ 4 &.} _ [ _ _ _ _ _ _ ( ( ( ( ( ( ( _ ! ",
"-.-.&.-.,.e 8 9 : 8 8 : & 8 V t q t & 0 P -.:.;./ ! ( } [ -.t 4 : , P ;.,.-.,.;.;.-.z Q Q ~ -.n 5 ( ( ! ( ( ( -.} [ ;.[ 4 i ^ ' _ ^ _ _ ( } ( &.%.( &.&.-.( _ _ ",
";.,.;.-.) q L H C : 8 9 9 % = : 0 4 @ r h ( &.x ! -.-.-.-.-.x P N F P _ _ } -.;.&.h ! ( ( / } ( 4 -.&.( ! &.-.,.| | :.;.3 0 U ! W +.( _ -.-.-.,.,.,.,.,.;.;.,.-.",
"/ / Q p q B H C q + [ 8.2.S ,.! _ >.5 # d P C P ;.,.,.;.-.-.Q t B K N P ~ _ ;.,./ ( &.( _ ! +.( 3 &.&.&.[ } -.-.;.` } ;.3 > Z N H Q ! ( ( &.-.&.&.-.&.&.&.&.n n ",
"( Q P ~ ! c Q Q ! % n :.! ' :.} o.| 4 # 0 M q r r e w 8 9 e h 0 > : > P U ..,.;._ ,.-.1.1._ ~ L 8 &.&.&.-.-.;._ | ' } [ r Z 0 : % & % o   # w 6 6 5 e e y p p z ",
"-.;.;.;.;.-.-.&.;.5 x :.[ } :.} ;.:.4 X 2 q ! _ / ( x 2.2.2.@.1.[ ^ x 8 q A A ~ ^ ) x z Q S q H q / ( &.( ) ( / ( ( ( Q 0 > P ! ;.` ! 4 5 7.[ [ -.-.-.-.-.-.;.,.",
"&.&.&.&.-.n ( ( -.6 g :.;.[ -.-.;.5.e < R P &._ ( ;.<.4.;.;.,.4.| @.x < 2 8 > ; : 3 5 5 : > 0 4 0 t c x x x x Q e 8 q q V > 8 t A q x 2 g 7.( } -.&.-.-.&.&.-.&.",
"-.-.&.&.&.( ( ( -.e i :.;.;.[ [ :.5.e 2 O.P _ _ ;.:.;.} -.;.-.^ | | g c | Y O.` ' 5.2.:.[ ~ ,.;.;.:.;.,.<.<.,.7.-.g d d C N > P N N Z ; : ! ! ;.-.4.7.3.-.;.;.-.",
"-.-.&.( #.( &.! -.u ! 2.-.:.:.;.n | p 7 q H &.} ;.;.;.-.-.-._ | [ } z ` :.| ` -.-.-.[ -.! x :.2.:.:.( &.;.&.( ,.;.n z 9 P H P ^ Y Z R , q _ &.( :.:.( [ [ [ [ &.",
"#.&.#.&.( &.n #.-.e _ :.-.} :.( ` :.z 0 M Q -.;.-.;.&.( ( ( } } _ [ x ( -.n -.-.-.! ( ( b p :.-.-.[ &.( &.( n <.-.x e 6 9 P H B Z Z W ; , &.&.[ -.-.[ ( ( ( ( &.",
"&.&.( n b ( ( n -.e ( :.:.:.( j [ :.z 8 S ( &.-.-.-._ &._ _ ( ( _ [ j c ( ( [ ( ( x c Q t z :.( _ ( ( &.=.&.&.<.n e 9 6 , q , F N > , > : j &.[ ( ( [ &.-.( ( &.",
"&.&.n p z &./ / -.e ! ;.-.x ! ! [ ;.Q U C _ _ _ ( _ -.-._ ( _ } ( | z ( -.[ ( [ ( ( ( ( t x ;.( } -.( ( &.&.&.,.( e b w 9 : : P t 0 : + x ( n ( -.n -.[ #.( ( #.",
"-.&.n / ! n %.#.-.e z ( x ! [ I ! >.~ H t ;.( _ _ &.4.} ( ( [ ! ` 6.h e [ c ! n ! ! x c 9 ! ;._ ( ( _ &.( =.%.=.( i n g t 4 + : e t 8 $ Q ( n &.n -.n &.( ( &.&.",
"-.-.#./ / ! / / [ e p ( &.( ( ! ! ! C 8 t -.&.&.&.-.-.( _ ( ( ! 2.6.t t c z z z z z i x 9 Q ;.-.( ( ( &.( =.%.,.&.w e : 8 5 x t e p 4 $ p ( ( &.n ( -.[ ( ( ( &.",
">.-.&./ n / n &.&.e x =.%.&.! ! H B C r e ,.&.=.-.( ( ( } ( _ ( } 7.t Q -.( ( [ ( -.( ;.Q x ;.[ &.( ( ( _ =.( &.,.w + % $ 2 z i e # : 8 x ! n ( ( &.#.n &.( ( ! ",
"#.#.%.b / ( / n &.5 p -.%.( Q P Y C C h e ,.( &._ _ ( } _ ( -._ P _ e Q ( ( n ` ( ( ( _ / e ( =.&._ &.&.&.&.=.( ;.&.8 0 ! x 2.:._ ) ( h e ( ! ! ! ! / _ ( ( ( b ",
"%.%.&.&.( ( &.n &.5 p *.! ~ P Y N : > Z p ;.( ( ( _ &.&.( &.-.( ~ A 8 p ( -.( &.( ( _ } Q q _ =.) =.%.*.&.&._ ( ( &.e t Q _ } 4.( _ } Q 2 i ( / P C ^ ( ( &.( ( ",
"i e w w w w 4 8 e 2 x ( _ ! ~ P 9 ! C B e ( ( &.-.&.;.;.=.;.,.=.Q t r p ! n ( ( &.( _ -.Q q &.=./ %.*.*.&.*.=.=.&.&.8 8 9 ! ( -./ _ &.Q < $ t 8 * V p p i u e 5 ",
"> = + & 8 + $ % < . e p 9 h g w t t > : 2 b &.&.&./ ( &.) &.&./ Q 0 8 z ( n ( &.( ( ( [ z 0 5 e 2 5 5 2 2 5 i w e r 4 r d ! ( } &.) ( t 2 / ! x x ! Q x x n z x ",
", P 0 8 x ( / ! / x x x p x x x x j q ! h 4 x i w w e w 6 2 t ) x x 7 x ( ( ( ( -.&.( ( x r 9 h n [ n ! ( [ 5 n ( &.8 4 ! } 2.4.,.( P a a <.<.:.;.,.1.;.} } } _ ",
") Q ) 7 ( :.-.-.} ;.&.-.;.&.-.} ;._ } ;.! : P Q Q | 1.@.! 7 p ,.&.=.C t ( ( ( ( &._ ( } ! 8 q C ! :.| [ ` } e [ _ 4.9 & ;.;.,.;.,.,.! a 5 ,.;.-.} } } -._ } ^ ^ ",
"1.( =.r ( &.&._ ( =.-.-._ ( ( _ _ _ ( _ p 7 P ~ j ! ` [ ;.e Q %./ &.t A ( &.&.( &.( ( =.Q % t _ :.[ :.[ ` | e ( [ } 9 8 ;.<.<.,.,.,.3./ 9 :.;.;.;.;.;.;.} +.} ;.",
"2.;.( 0 ( &.( ( } -.} ( _ ( _ [ _ ( ( ;.i 7 ! x h c c ` -.p ( -.&.=.e x [ ( ( _ _ =.&.=.x r } } [ -.[ [ { :.e ` ! ! 8 & :.<.,.,.3.,.<.&.w ,.:.;.,.;.;.;.;.;.} | ",
",.&.Q t 9 n :.:.} [ _ _ _ ( _ ( _ ( ( } p 8 ^ ! x ! ` ` [ i &.>.,.&.t x ( &.( ( =.=.( &.Q w ,.-.:.-.x j 5.7.e ( [ ~ 0 4 1.,.3.,.,.,.3.&.5 <.4.<._ 4.4.3.2.4.,.1.",
"( / / t n 7.:.[ } ,.( ( ( ( _ ( ( } } _ h r ! ( ! [ ' [ -.h x &.,.-.i p -.[ &.-.( / ( [ x 4 &.( [ x e ! ^ [ 5 5 4 + o 8 2.,.,.3.<.,.4.%.@ x x e p ( ( ( -.;.;.[ ",
"d j ( e :.:.[ -.-.} ( _ } ( ( ^ _ &.~ P e @ % & 9 c x e u e 0 e v w 2 < 5 e e e 4 2 5 5 4 # 4 3 # & & 4 9 3 1 & 4 t 9 8 1.4.=.3.3.,.,.&.. 3 < 1 4 : < 5 i g g h ",
"N P ! e ( :.;.;.} ( ( } ( ( ( _ _ -.P q 8 6 ! ( ! e p e 9 z x h i i 8 2 X x -.( ( ( ( } | ( ! ( ( [ [ [ ;.;.} :.2.:.4.h +.4.1.,.,.,.4.! z c x e 8 ; 8 7.' I U U ",
"C h ! e x :.;.&.( [ ( _ ( ( _ ( ( _ ( Q r p ,.,.;._ q.7.7.7.7.6.1.| 4.4.e n [ ( _ ( _ -.&.( ( ) ( ( ( ) ) ( ( ) / / ( e ^ ;.} 4.:.4.1.z c ! Q x 0 , 9 [ P P N t ",
"( ( ! e ! :.} [ } _ _ _ _ ( _ ( ( _ ( ^ p p 1._ -.! :.:.,.} ~ ! ~ ^ ,.:.5 ( [ ( x ( _ / ( ( ( &.( &.( &.=.&.( ( _ ) _ r % 8 0 r 5 9 9 4 z x e g h N 0 ! ^ ! ! ` ",
"_ ( _ e / ,._ _ _ &.[ _ ! ! _ ( ( ( _ _ e t 5.,.&.( 2.,.2.1._ ! ;.2.:.;.5 n :.` Q ! ! &.( ( ( ( %.=.&.*.&.&.&._ _ ( ( _ 2 2 5 2 5 5 4 e x ! x h t ; 9 [ [ ! ( ( ",
"_ ( &.7 i :.,.-.~ o.} _ _ _ ( ( _ _ Q ( i t 2.} ( _ ;.,.;.,.3.2.:.,.;.,.6 c | c / ! &.( &.( ( &.( &.&.( ( =.&.&._ ( ) =.w z 7.:.7.8.8.7.2.4.:.5.@.q g ( ( ( ! ( ",
"( ! ( 4 @ n -._ ..Z o.) _ _ _ _ ( ;._ ( 5 t ;.( ( Q +.;.,.;.,.;.,.,.:.,.6 e { ! ( -.( ( ( ( &.&.=.&.) ) ( ) &.&.&.=.( &.e Q [ ( [ [ ( ( -.-.` -.} 8 j ( &.( ! ( ",
"( Q -.4 @ 4 & 4 q 0 C S ~ t t r x x Q Q 2 8 ( ( Q Q _ ,.1.:.,.1.;.4.-.} 5 c ;.( } ` ( } ` ( ( ( =.%.&.) &.&.&.&.( _ =.&.w x ;.[ [ } [ -.[ | ' -.-.8 t ( ( &.( ( ",
"( ( _ 8 0 C , : > V = > 0 = = : : 0 q - $ 0 p p 5 D ;.,.,.,.1.=.,.;.} -.6 ( -.` | ` | [ [ ` ! / _ ( =.&.%.&.( ( ( _ &.&.w c ;.[ :.:.} } [ [ ' :.;.8 0 x ( ( -.( ",
"( P ~ t , t ! ! V  .! C Q ( } ^ ( 2.} t : & 1 w 7 Q 1.1.1.=.=.=.2.2.3.;.6 n [ | :.n ` [ [ ( ( ! %.( ) &.( &.) ( ( &.&.-.5 c ;.` :.;.` } } | ' } } > N x [ ( ( ( ",
"Q q h 9 ; C ! ` S o.-.U ~ ^ ( | 1.` ^ _ q q 0 d q r j x h / _ ,.,.1.3.1.w x _ ;.:.` [ ` &.&.( ) ( &.( &.-.( &.( ( _ ( &.6 p } } I P _ } } :.[ :._ Z K e ( ( ( ( ",
"p : 8 1 9 , H _ =.=.;.~ E ^ +.2.^ ^ ^ | A K ; q 8 w Q c Q ;.;.2.,.,.1.3.w e ;.:.-.:.{ ` ( &.( ~ ( -.( ( [ ( ( ( &.n &.,.5 e ;.( _ ^ _ } | } | [ _ Z > p ( ( ( x ",
"t 0 ! ;.5.} J [ =._ -.^ ~ ^ | ! ` ^ ! ` S : : q & x / b ( C I ;.;.1.;.1.t z 5.:.;.;.| [ ! ( ( ( ( #.n [ ( ( ( &.&.&.&.&.2 Q | _ ( ) _ +.-.[ } :.} B > g n ( / q ",
"q t Q &.<.7.x ( _ _ ;._ _ _ _ ! ^ ` ~ ~ q + 0 g 2 8 Q b x K P <.,.! ^ ;.4 n 5.<.:.-.[ ` [ [ } _ Q / -.( ( -.( b &.&.&.-.5 ! _ ( _ ) _ _ } :.} ;.+.M = t [ x x x ",
"P P Q &.-.<.n ( _ _ ;.=.;._ ( } ( ^ ! ^ q V t r q 0 8 8 t U ~ -.~ C q : v >.! >.-.&.! [ | ' ^ _ ~ ( ( ( &.( h b &.&.&.&.5 / &.=.-.X.=.) _ _ } _ ' Z ; e &.! / &.",
"9 P ~ ( -.,.n n -._ ;.;.;._ x t e h P j A M = 0 N ; * % 4 & 9 q , , : 4 l $.>.z ( b 5 x ` ^ ! Q ! ( ( ( ( x Q ! b / &.( 8 Q -.*.*.X. .=.) ) _ } ' K 0 x x ( b e ",
"I x h ( *.,.( _ ;.=.;.;.;.;.( z e Q Q ( &.A K C & h [ t e [ ( ( [ [ [ ! # u #.x x x n / -.[ _ _ _ &.&.&./ ! &.&.( &.&.=.2 x 1.X.o._ E ~ *.( _ -.~ ; ; x h g e h ",
"P t / P K C C _ =.=.&._ =.;.&.} _ =._ ( ( 2.~ 0 5 ;.[ ( ;.-.-.[ -.[ -.p & x x b ( ! Q 5 2 4 2 2 5 2 4 5 1 4 4 4 4 4 4 w @ $ / ^ T P C V A S t I P N N h Q j c I ",
"C q h , H G C } } ;.( ( &.&.&.( ( ( ( ( ( -.P 8 5 p ( ( ( / ( ( ( &.&.i e -.c ( n ( ;.( ! n c ( b b e 6 ( c ! x ! n ! ! ( x 4 i 8 = > Z m C V H C B R t P t t H ",
"N N N q , > ! -.=.-._ Q ( ;._ ( _ [ ( [ ( _ A p < e &.( ( =.( ( ( &.( p e x n n [ -.[ -.,.;.;.;.-.,.x e :.-.;.-.( ( ( ( ! ;.8 $ = , m K m B > > ; M ; = q > > C ",
"} ~ P , K A &.-.=.;.^ ( ! &._ _ ( [ &.[ &.( e i 2 ( _ ( ( ( _ ( ( n &.! e ( ( &.-.;.-.[ _ &.&._ -.=.r 5 _ ( ( ( ( ( / ! ( ( 9 9 1.1.) } } _ ~ ~ _ P e &.1.;.} 1.",
"( ! P N N A =.=.=.&.( _ _ _ -._ ( ( ( ( ( ( S q w _ ( ( &.( &.( ( ( &.z 4 ( ( b &.! ( -._ -.} 1.4.;.8 5 _ ( ! ( ( ( ! ( ( ( t A 0.3.3.;.1.;.,.,._ Q ,.&.-.;.;.=.",
"! ( _ P > Q -.=.=.=._ =._ =.-.&.( ( ! [ ( ( U C 8 ^ ;.( ( &.( ( ( b ( ( 4 / z p z ! =.;._ } -.,.;.-.z e _ ( _ ( ( ! ( ( ( &.0 t ;./ / ;._ / ( / t _ ( &.&.&.( ! ",
"/ ( ( ( q 0 _ =.,.=.=.=.=.;.;.} ( [ ! ( ( [ P > 4 } -.( ( ( / &.%.n ! / 4 b z x ( ,.;.&.} _ } } ;.,.( e ( } ;._ &.( ! ( ( ( q C ,.( &.;.-.&./ q I &.( &.&.( ( ( ",
"&.( ( -.P 0 &.=.=.=.=._ &.&.&._ ( ( ! ! [ ( C A : ( &.( &.n &.&.( &.( ! 4 z x b -.-.;.} _ } -.,.,.=.( i ' ;._ ( ! ( ! ( &.( q C ,./ ( &.%.Q A ~ [ ( &.( ( ! ^ ( ",
"&.( ( ( P C &.=.;.=._ _ ( _ ( _ ^ ( ` } ( H P Q $ ! &.( ( ( ( b ( ( ( ( e Q z ( -.-.-.} } &.&.&.=._ ( e | _ ( Q / ( ( ( &.( P q ,.( ( &.p I ;.( ( ( ( &.( ) ( ( ",
";._ _ &.Q r &.} ;.,.&.( c z x ( _ ( ` } ( 0 t w $ ! -._ ) ( n ( ( ( &.x 6 x n [ &.;.-.} -.( &.( ( ( ! w Q &.( ( ! ( ( ( ( &.Q C =.;.;./ ~ :.( n ( &.&.&.( ( ( _ ",
"-.&._ &.P , P ( =.;.( ! ! / t x ! ! _ ( / C L r # ! } / ( ( &./ / ) &.x 5 x ( &.} ;.-.-.} &.( ( &.} ( 2 b *.( ! ( / ( ( ( &.! q ,.&.&.D ! ! ( ( ( ! ( &.( ( ( ( ",
"( &.&.x q > : t ,.-.( ( ( -.1.z b [ x P t t K 8 $ ( -.( &.( ! b ) =.&.x 5 x ( ( _ ,.-.} -.} ( ( [ ` ! 2 ! &.( ! ( ( &.n ( ( ~ q ( ( / A ( ( ( ( ( } ( &.&._ _ ( ",
"&._ -.} t 5 e e Q x x x n x x i w 8 0 0 w e 4 1 # [ ,.( ( ( ( *.%.=.&.p 6 c ( ! _ -.-.( } } [ ( ! ^ [ 4 ( &._ ( ! ( ( &.( ( ! > ( ) A _ ( ( ( ;.,._ _ &.&.( ( ( ",
"_ &.} } Q w 6 ;.4.7.4.<.<.:.<.<.:.Q # 2 4 5 3 < 2 _ 1._ b &./ &.=./ &.i e [ [ -.;.;.;.| } } | } [ [ ! 2 &.&.( ( &.( [ ( ( ( h 0 Q Q ! ! &.! ;.;.! ( ! _ -.&.( ( ",
"&.} &.} x # t -.-.;.-.} [ -.;.&.( } 4 0 t e i 4 @ ( =.;.( _ &.&.&.( ( @ 2 e e e e 4 5 5 4 4 5 3 4 8 5 w ;.( ( ( &.n ( ( ( ( ! 0 Q Q P Q ( ( ;.( _ _ ( &.;.-.} _ ",
"( _ ^ ` t z ,.;.,.&.-.&.-.,.-.&.} _ : # 5 5 4 $ . $ 2 4 7 2 w 2 4 u 4 # . @ 2 4 4 w 3 @ 9 e r 9 8 e < 4 ;.( ( _ &.&./ &.( ( _ r p x Q Q b &.;.-.-.&.! [ -.} ( [ ",
"( _ ! } e x ,.,.-.,.&.&.-.-.,.&.&.' - h :.` [ [ } ( ( -.h e ( ( [ [ ( ! w e ( _ _ ;.! t 1.! _ [ ( ( x w -._ _ &.&.%.*.*.! ! ! w p Q t Q b ! -.-.( ! / ( ;._ [ ! "
};
